<?xml version="1.0" encoding="UTF-8" standalone="no"?>
<!-- Created with Inkscape (http://www.inkscape.org/) -->

<svg
   width="156.43069mm"
   height="103.8981mm"
   viewBox="0 0 156.43069 103.8981"
   version="1.1"
   id="svg1"
   sodipodi:docname="decision_problem_representation.svg"
   inkscape:version="1.3.2 (091e20e, 2023-11-25)"
   xmlns:inkscape="http://www.inkscape.org/namespaces/inkscape"
   xmlns:sodipodi="http://sodipodi.sourceforge.net/DTD/sodipodi-0.dtd"
   xmlns="http://www.w3.org/2000/svg"
   xmlns:svg="http://www.w3.org/2000/svg">
  <sodipodi:namedview
     id="namedview1"
     pagecolor="#ffffff"
     bordercolor="#000000"
     borderopacity="0.25"
     inkscape:showpageshadow="2"
     inkscape:pageopacity="0.0"
     inkscape:pagecheckerboard="0"
     inkscape:deskcolor="#d1d1d1"
     inkscape:document-units="mm"
     inkscape:zoom="1.699855"
     inkscape:cx="218.8422"
     inkscape:cy="196.19321"
     inkscape:window-width="1920"
     inkscape:window-height="1052"
     inkscape:window-x="1920"
     inkscape:window-y="391"
     inkscape:window-maximized="0"
     inkscape:current-layer="layer1" />
  <defs
     id="defs1">
    <marker
       style="overflow:visible"
       id="marker51"
       refX="30"
       refY="0"
       orient="auto-start-reverse"
       markerWidth="1"
       markerHeight="1"
       viewBox="0 0 1 1"
       preserveAspectRatio="xMidYMid">
      <path
         style="fill:none;stroke:context-stroke;stroke-width:1;stroke-linecap:butt"
         d="M 3,-3 0,0 3,3"
         transform="rotate(180,0.125,0)"
         id="path51" />
    </marker>
    <marker
       style="overflow:visible"
       id="marker49"
       refX="0"
       refY="0"
       orient="auto-start-reverse"
       markerWidth="1"
       markerHeight="1"
       viewBox="0 0 1 1"
       preserveAspectRatio="xMidYMid">
      <path
         style="fill:none;stroke:context-stroke;stroke-width:1;stroke-linecap:butt"
         d="M 3,-3 0,0 3,3"
         transform="rotate(180,0.125,0)"
         id="path49" />
    </marker>
    <marker
       style="overflow:visible"
       id="marker47"
       refX="0"
       refY="0"
       orient="auto-start-reverse"
       markerWidth="1"
       markerHeight="1"
       viewBox="0 0 1 1"
       preserveAspectRatio="xMidYMid">
      <path
         style="fill:none;stroke:context-stroke;stroke-width:1;stroke-linecap:butt"
         d="M 3,-3 0,0 3,3"
         transform="rotate(180,0.125,0)"
         id="path47" />
    </marker>
    <marker
       style="overflow:visible"
       id="marker46"
       refX="0"
       refY="0"
       orient="auto-start-reverse"
       markerWidth="1"
       markerHeight="1"
       viewBox="0 0 1 1"
       preserveAspectRatio="xMidYMid">
      <path
         style="fill:none;stroke:context-stroke;stroke-width:1;stroke-linecap:butt"
         d="M 3,-3 0,0 3,3"
         transform="rotate(180,0.125,0)"
         id="path46" />
    </marker>
    <marker
       style="overflow:visible"
       id="ArrowWide"
       refX="0"
       refY="0"
       orient="auto-start-reverse"
       markerWidth="1"
       markerHeight="1"
       viewBox="0 0 1 1"
       preserveAspectRatio="xMidYMid">
      <path
         style="fill:none;stroke:context-stroke;stroke-width:1;stroke-linecap:butt"
         d="M 3,-3 0,0 3,3"
         transform="rotate(180,0.125,0)"
         id="path42" />
    </marker>
    <marker
       style="overflow:visible"
       id="marker49-2"
       refX="0"
       refY="0"
       orient="auto-start-reverse"
       markerWidth="1"
       markerHeight="1"
       viewBox="0 0 1 1"
       preserveAspectRatio="xMidYMid">
      <path
         style="fill:none;stroke:context-stroke;stroke-width:1;stroke-linecap:butt"
         d="M 3,-3 0,0 3,3"
         transform="rotate(180,0.125,0)"
         id="path49-3" />
    </marker>
    <marker
       style="overflow:visible"
       id="marker49-2-7"
       refX="0"
       refY="0"
       orient="auto-start-reverse"
       markerWidth="1"
       markerHeight="1"
       viewBox="0 0 1 1"
       preserveAspectRatio="xMidYMid">
      <path
         style="fill:none;stroke:context-stroke;stroke-width:1;stroke-linecap:butt"
         d="M 3,-3 0,0 3,3"
         transform="rotate(180,0.125,0)"
         id="path49-3-9" />
    </marker>
  </defs>
  <g
     id="layer1"
     transform="translate(-24.5056, -159.511)">
    <rect
       style="fill:none;fill-opacity:1;stroke:#ff00ff;stroke-width:1;stroke-opacity:1"
       id="rect32"
       width="116.80753"
       height="77.097618"
       x="63.628754"
       y="166.50299" />
    <rect
       style="fill:#ff00ff;fill-opacity:0.191549;stroke:#d900d9;stroke-width:1;stroke-opacity:1"
       id="rect33"
       width="77.329834"
       height="56.429882"
       x="74.310951"
       y="181.13295" />
    <path
       style="fill:none;fill-opacity:0.405634;stroke:#0000d9;stroke-width:1;stroke-opacity:1;marker-end:url(#marker51)"
       d="M 25.007188,254.62133 73.184812,238.09862"
       id="path50" />
    <ellipse
       style="fill:#63ffff;fill-opacity:1;stroke:#ff00ff;stroke-width:0.912417;stroke-opacity:1"
       id="path86-0"
       cx="126.99516"
       cy="217.92781"
       rx="9.1008978"
       ry="11.125429" />
    <path
       style="fill:none;fill-opacity:0.405634;stroke:#0000d9;stroke-width:1;stroke-opacity:1;marker-end:url(#marker51)"
       d="m 102.26568,254.6759 49.21665,-17.17606"
       id="path48"
       sodipodi:nodetypes="cc" />
    <path
       style="fill:none;fill-opacity:0.405634;stroke:#00b600;stroke-width:1;stroke-opacity:1;marker-end:url(#marker51)"
       d="M 68.691303,219.78042 124.59632,206.9836"
       id="path48-3"
       sodipodi:nodetypes="cc" />
    <path
       style="fill:none;fill-opacity:0.405634;stroke:#00b600;stroke-width:1;stroke-opacity:1;marker-end:url(#marker51)"
       d="M 73.136559,240.42703 127.76287,229.12197"
       id="path48-3-1"
       sodipodi:nodetypes="cc" />
    <path
       style="fill:none;fill-opacity:0.405634;stroke:#0000d9;stroke-width:1;stroke-opacity:1;marker-end:url(#marker51)"
       d="M 24.954034,198.33413 74.394565,181.24526"
       id="path41"
       sodipodi:nodetypes="cc" />
    <path
       style="fill:none;fill-opacity:0.405634;stroke:#0000d9;stroke-width:1;stroke-opacity:1;marker-mid:url(#marker46);marker-end:url(#marker51)"
       d="m 101.90896,198.40547 49.41858,-17.04038"
       id="path43"
       sodipodi:nodetypes="cc" />
    <rect
       style="fill:#000000;fill-opacity:0.405634;stroke:#000000;stroke-width:1;stroke-opacity:1"
       id="rect33-5"
       width="77.329834"
       height="56.429882"
       x="25.005602"
       y="198.334" />
    <g
       transform="translate(42.26481,259.0438)"
       id="g41">
      <g
         fill="#000000"
         fill-opacity="1"
         id="g34"
         transform="matrix(0.352778,0,0,0.352778,-0.984206,-0.653785)">
        <g
           id="use11"
           transform="translate(1.993,13.947)">
          <path
             d="m 7.546875,-11.6875 c 0,-0.3125 -0.015625,-0.328125 -0.125,-0.328125 -0.109375,0 -0.140625,0.0625 -0.203125,0.21875 l -0.515625,1.140625 c -0.65625,-0.953125 -1.65625,-1.375 -2.75,-1.375 -1.75,0 -3.15625,1.390625 -3.15625,3.140625 0,0.546875 0.109375,1.296875 0.703125,2.015625 0.640625,0.796875 1.234375,0.9375 2.609375,1.296875 0.515625,0.140625 1.390625,0.359375 1.5625,0.4375 0.96875,0.40625 1.484375,1.4375 1.484375,2.40625 0,1.234375 -0.875,2.5625 -2.375,2.5625 -1.84375,0 -3.5625,-1.03125 -3.671875,-3.4375 -0.03125,-0.28125 -0.046875,-0.296875 -0.15625,-0.296875 -0.140625,0 -0.15625,0.015625 -0.15625,0.359375 V -0.0625 c 0,0.296875 0.015625,0.328125 0.109375,0.328125 0.125,0 0.15625,-0.09375 0.40625,-0.625 0.015625,-0.046875 0.015625,-0.09375 0.34375,-0.75 0.859375,1.140625 2.296875,1.390625 3.125,1.390625 1.875,0 3.203125,-1.578125 3.203125,-3.390625 0,-0.90625 -0.328125,-1.59375 -0.515625,-1.90625 C 6.75,-6.109375 5.96875,-6.3125 5.140625,-6.53125 5.03125,-6.578125 5,-6.578125 4.03125,-6.8125 3.09375,-7.0625 2.703125,-7.1875 2.265625,-7.640625 1.796875,-8.171875 1.625,-8.734375 1.625,-9.28125 c 0,-1.125 0.890625,-2.34375 2.359375,-2.34375 1.8125,0 2.953125,1.296875 3.21875,3.453125 0.046875,0.296875 0.0625,0.3125 0.1875,0.3125 0.15625,0 0.15625,-0.046875 0.15625,-0.34375 z m 0,0"
             id="path33" />
        </g>
        <g
           id="use12"
           transform="translate(10.788348,13.947)">
          <path
             d="m 6.5625,-4.046875 c 0.0625,-0.0625 0.0625,-0.109375 0.0625,-0.28125 0,-1.75 -0.921875,-3.28125 -2.890625,-3.28125 -1.828125,0 -3.265625,1.734375 -3.265625,3.859375 0,2.234375 1.625,3.890625 3.453125,3.890625 1.9375,0 2.6875,-1.828125 2.6875,-2.1875 0,-0.125 -0.09375,-0.125 -0.140625,-0.125 -0.109375,0 -0.125,0.03125 -0.203125,0.25 -0.375,1.171875 -1.328125,1.75 -2.21875,1.75 C 3.3125,-0.171875 2.5625,-0.578125 2.09375,-1.34375 1.5625,-2.21875 1.5625,-3.234375 1.5625,-4.046875 Z M 1.578125,-4.3125 c 0.125,-2.46875 1.453125,-3.015625 2.140625,-3.015625 1.171875,0 1.96875,1.09375 1.984375,3.015625 z m 0,0"
             id="path25" />
        </g>
        <g
           id="use13"
           transform="translate(17.784685,13.947)">
          <path
             d="m 11.640625,-5.234375 c 0,-0.859375 -0.15625,-2.3125 -2.203125,-2.3125 -1.171875,0 -1.984375,0.796875 -2.296875,1.734375 H 7.125 C 6.921875,-7.234375 5.90625,-7.546875 4.9375,-7.546875 c -1.359375,0 -2.0625,1.0625 -2.3125,1.75 H 2.59375 v -1.75 l -2.03125,0.1875 v 0.453125 c 1.015625,0 1.171875,0.109375 1.171875,0.9375 v 4.78125 c 0,0.65625 -0.0625,0.734375 -1.171875,0.734375 V 0 c 0.421875,-0.03125 1.171875,-0.03125 1.625,-0.03125 0.453125,0 1.21875,0 1.640625,0.03125 v -0.453125 c -1.109375,0 -1.171875,-0.0625 -1.171875,-0.734375 V -4.5 c 0,-1.578125 0.953125,-2.765625 2.171875,-2.765625 1.265625,0 1.40625,1.140625 1.40625,1.96875 V -1.1875 c 0,0.65625 -0.0625,0.734375 -1.171875,0.734375 V 0 c 0.40625,-0.03125 1.171875,-0.03125 1.625,-0.03125 0.4375,0 1.21875,0 1.625,0.03125 v -0.453125 c -1.09375,0 -1.171875,-0.0625 -1.171875,-0.734375 V -4.5 c 0,-1.578125 0.96875,-2.765625 2.171875,-2.765625 1.28125,0 1.421875,1.140625 1.421875,1.96875 V -1.1875 c 0,0.65625 -0.07813,0.734375 -1.171875,0.734375 V 0 c 0.40625,-0.03125 1.171875,-0.03125 1.609375,-0.03125 0.453125,0 1.21875,0 1.640625,0.03125 v -0.453125 c -1.109375,0 -1.171875,-0.0625 -1.171875,-0.734375 z m 0,0"
             id="path26" />
        </g>
        <g
           id="use14"
           transform="translate(31.076696,13.947)">
          <path
             d="m 6.203125,-4.453125 c 0,-1.140625 0,-1.75 -0.734375,-2.421875 -0.625,-0.5625 -1.375,-0.734375 -1.953125,-0.734375 -1.359375,0 -2.34375,1.0625 -2.34375,2.203125 0,0.640625 0.515625,0.671875 0.625,0.671875 0.21875,0 0.609375,-0.140625 0.609375,-0.625 0,-0.421875 -0.328125,-0.609375 -0.609375,-0.609375 -0.078125,0 -0.15625,0.015625 -0.21875,0.03125 0.375,-1.09375 1.296875,-1.390625 1.90625,-1.390625 0.859375,0 1.796875,0.75 1.796875,2.203125 v 0.75 C 4.265625,-4.34375 3.046875,-4.203125 2.078125,-3.6875 1,-3.078125 0.6875,-2.21875 0.6875,-1.5625 c 0,1.328125 1.546875,1.703125 2.46875,1.703125 0.9375,0 1.8125,-0.53125 2.203125,-1.515625 0.03125,0.75 0.515625,1.4375 1.265625,1.4375 0.359375,0 1.28125,-0.234375 1.28125,-1.59375 V -2.5 h -0.3125 v 0.984375 c 0,1.046875 -0.46875,1.1875 -0.6875,1.1875 -0.703125,0 -0.703125,-0.890625 -0.703125,-1.65625 z m -0.921875,2.0625 c 0,1.5 -1.0625,2.25 -2.015625,2.25 -0.859375,0 -1.53125,-0.640625 -1.53125,-1.421875 0,-0.515625 0.234375,-1.4375 1.234375,-1.984375 0.8125,-0.46875 1.765625,-0.53125 2.3125,-0.5625 z m 0,0"
             id="path34" />
        </g>
        <g
           id="use15"
           transform="translate(38.97168,13.947)">
          <path
             d="m 7.140625,-5.234375 c 0,-0.875 -0.171875,-2.3125 -2.203125,-2.3125 -1.359375,0 -2.0625,1.0625 -2.3125,1.75 H 2.59375 v -1.75 l -2.03125,0.1875 v 0.453125 c 1.015625,0 1.171875,0.109375 1.171875,0.9375 v 4.78125 c 0,0.65625 -0.0625,0.734375 -1.171875,0.734375 V 0 c 0.421875,-0.03125 1.171875,-0.03125 1.625,-0.03125 0.453125,0 1.21875,0 1.640625,0.03125 v -0.453125 c -1.109375,0 -1.171875,-0.0625 -1.171875,-0.734375 V -4.5 c 0,-1.578125 0.953125,-2.765625 2.171875,-2.765625 1.265625,0 1.40625,1.140625 1.40625,1.96875 V -1.1875 c 0,0.65625 -0.0625,0.734375 -1.171875,0.734375 V 0 c 0.40625,-0.03125 1.171875,-0.03125 1.625,-0.03125 0.4375,0 1.21875,0 1.625,0.03125 v -0.453125 c -1.09375,0 -1.171875,-0.0625 -1.171875,-0.734375 z m 0,0"
             id="path28" />
        </g>
      </g>
      <g
         fill="#000000"
         fill-opacity="1"
         id="g36"
         transform="matrix(0.352778,0,0,0.352778,-0.984206,-0.653785)">
        <g
           id="use16"
           transform="translate(47.319427,13.947)">
          <path
             d="M 2.59375,-6.953125 H 5.015625 V -7.40625 H 2.59375 v -3.1875 H 2.296875 C 2.25,-8.8125 1.65625,-7.265625 0.1875,-7.234375 v 0.28125 h 1.5 V -2.125 c 0,0.328125 0,2.265625 2,2.265625 1.015625,0 1.59375,-1 1.59375,-2.28125 v -0.96875 h -0.3125 v 0.953125 c 0,1.1875 -0.453125,1.984375 -1.1875,1.984375 -0.5,0 -1.1875,-0.34375 -1.1875,-1.90625 z m 0,0"
             id="path35" />
        </g>
        <g
           id="use17"
           transform="translate(53.415401,13.947)">
          <path
             d="m 2.671875,-10.609375 c 0,-0.375 -0.3125,-0.703125 -0.703125,-0.703125 -0.390625,0 -0.71875,0.3125 -0.71875,0.703125 0,0.375 0.3125,0.703125 0.71875,0.703125 0.375,0 0.703125,-0.296875 0.703125,-0.703125 z m -2.015625,3.25 v 0.453125 c 0.96875,0 1.09375,0.109375 1.09375,0.9375 v 4.78125 c 0,0.65625 -0.0625,0.734375 -1.171875,0.734375 V 0 C 1,-0.03125 1.734375,-0.03125 2.171875,-0.03125 c 0.40625,0 1.109375,0 1.515625,0.03125 v -0.453125 c -1.015625,0 -1.046875,-0.09375 -1.046875,-0.71875 v -6.375 z m 0,0"
             id="path30" />
        </g>
        <g
           id="use18"
           transform="translate(57.712364,13.947)">
          <path
             d="m 6.015625,-6.03125 c -0.328125,0 -0.8125,0 -0.8125,0.609375 0,0.484375 0.390625,0.625 0.609375,0.625 0.125,0 0.625,-0.0625 0.625,-0.65625 0,-1.234375 -1.171875,-2.15625 -2.5,-2.15625 -1.8125,0 -3.375,1.6875 -3.375,3.890625 0,2.296875 1.625,3.859375 3.375,3.859375 2.140625,0 2.671875,-1.984375 2.671875,-2.171875 0,-0.0625 -0.015625,-0.125 -0.140625,-0.125 -0.109375,0 -0.125,0.015625 -0.203125,0.25 C 5.8125,-0.515625 4.84375,-0.171875 4.09375,-0.171875 3,-0.171875 1.671875,-1.1875 1.671875,-3.734375 c 0,-2.625 1.265625,-3.5625 2.28125,-3.5625 0.671875,0 1.671875,0.328125 2.0625,1.265625 z m 0,0"
             id="path31" />
        </g>
        <g
           id="use19"
           transform="translate(64.708702,13.947)">
          <path
             d="m 6.203125,-4.453125 c 0,-1.140625 0,-1.75 -0.734375,-2.421875 -0.625,-0.5625 -1.375,-0.734375 -1.953125,-0.734375 -1.359375,0 -2.34375,1.0625 -2.34375,2.203125 0,0.640625 0.515625,0.671875 0.625,0.671875 0.21875,0 0.609375,-0.140625 0.609375,-0.625 0,-0.421875 -0.328125,-0.609375 -0.609375,-0.609375 -0.078125,0 -0.15625,0.015625 -0.21875,0.03125 0.375,-1.09375 1.296875,-1.390625 1.90625,-1.390625 0.859375,0 1.796875,0.75 1.796875,2.203125 v 0.75 C 4.265625,-4.34375 3.046875,-4.203125 2.078125,-3.6875 1,-3.078125 0.6875,-2.21875 0.6875,-1.5625 c 0,1.328125 1.546875,1.703125 2.46875,1.703125 0.9375,0 1.8125,-0.53125 2.203125,-1.515625 0.03125,0.75 0.515625,1.4375 1.265625,1.4375 0.359375,0 1.28125,-0.234375 1.28125,-1.59375 V -2.5 h -0.3125 v 0.984375 c 0,1.046875 -0.46875,1.1875 -0.6875,1.1875 -0.703125,0 -0.703125,-0.890625 -0.703125,-1.65625 z m -0.921875,2.0625 c 0,1.5 -1.0625,2.25 -2.015625,2.25 -0.859375,0 -1.53125,-0.640625 -1.53125,-1.421875 0,-0.515625 0.234375,-1.4375 1.234375,-1.984375 0.8125,-0.46875 1.765625,-0.53125 2.3125,-0.5625 z m 0,0"
             id="path32" />
        </g>
        <g
           id="use20"
           transform="translate(72.603683,13.947)">
          <path
             d="m 2.640625,-11.953125 -2.0625,0.1875 v 0.453125 c 1.015625,0 1.171875,0.109375 1.171875,0.921875 V -1.1875 c 0,0.65625 -0.0625,0.734375 -1.171875,0.734375 V 0 C 1,-0.03125 1.75,-0.03125 2.1875,-0.03125 c 0.453125,0 1.203125,0 1.625,0.03125 v -0.453125 c -1.109375,0 -1.171875,-0.0625 -1.171875,-0.734375 z m 0,0"
             id="path36" />
        </g>
      </g>
      <g
         fill="#000000"
         fill-opacity="1"
         id="g40"
         transform="matrix(0.352778,0,0,0.352778,-0.984206,-0.653785)">
        <g
           id="use21"
           transform="translate(82.099701,13.947)">
          <path
             d="m 7.546875,-11.6875 c 0,-0.3125 -0.015625,-0.328125 -0.125,-0.328125 -0.109375,0 -0.140625,0.0625 -0.203125,0.21875 l -0.515625,1.140625 c -0.65625,-0.953125 -1.65625,-1.375 -2.75,-1.375 -1.75,0 -3.15625,1.390625 -3.15625,3.140625 0,0.546875 0.109375,1.296875 0.703125,2.015625 0.640625,0.796875 1.234375,0.9375 2.609375,1.296875 0.515625,0.140625 1.390625,0.359375 1.5625,0.4375 0.96875,0.40625 1.484375,1.4375 1.484375,2.40625 0,1.234375 -0.875,2.5625 -2.375,2.5625 -1.84375,0 -3.5625,-1.03125 -3.671875,-3.4375 -0.03125,-0.28125 -0.046875,-0.296875 -0.15625,-0.296875 -0.140625,0 -0.15625,0.015625 -0.15625,0.359375 V -0.0625 c 0,0.296875 0.015625,0.328125 0.109375,0.328125 0.125,0 0.15625,-0.09375 0.40625,-0.625 0.015625,-0.046875 0.015625,-0.09375 0.34375,-0.75 0.859375,1.140625 2.296875,1.390625 3.125,1.390625 1.875,0 3.203125,-1.578125 3.203125,-3.390625 0,-0.90625 -0.328125,-1.59375 -0.515625,-1.90625 C 6.75,-6.109375 5.96875,-6.3125 5.140625,-6.53125 5.03125,-6.578125 5,-6.578125 4.03125,-6.8125 3.09375,-7.0625 2.703125,-7.1875 2.265625,-7.640625 1.796875,-8.171875 1.625,-8.734375 1.625,-9.28125 c 0,-1.125 0.890625,-2.34375 2.359375,-2.34375 1.8125,0 2.953125,1.296875 3.21875,3.453125 0.046875,0.296875 0.0625,0.3125 0.1875,0.3125 0.15625,0 0.15625,-0.046875 0.15625,-0.34375 z m 0,0"
             id="path37" />
        </g>
        <g
           id="use22"
           transform="translate(90.89505,13.947)">
          <path
             d="M 2.59375,-6.953125 H 5.015625 V -7.40625 H 2.59375 v -3.1875 H 2.296875 C 2.25,-8.8125 1.65625,-7.265625 0.1875,-7.234375 v 0.28125 h 1.5 V -2.125 c 0,0.328125 0,2.265625 2,2.265625 1.015625,0 1.59375,-1 1.59375,-2.28125 v -0.96875 h -0.3125 v 0.953125 c 0,1.1875 -0.453125,1.984375 -1.1875,1.984375 -0.5,0 -1.1875,-0.34375 -1.1875,-1.90625 z m 0,0"
             id="path38" />
        </g>
        <g
           id="use23"
           transform="translate(96.99102,13.947)">
          <path
             d="m 5.0625,-7.359375 v 0.453125 c 1.015625,0 1.171875,0.109375 1.171875,0.9375 v 3.125 c 0,1.453125 -0.78125,2.703125 -2.046875,2.703125 -1.421875,0 -1.53125,-0.84375 -1.53125,-1.734375 v -5.671875 l -2.09375,0.1875 v 0.453125 c 0.6875,0 1.15625,0 1.171875,0.6875 v 3.3125 c 0,1.15625 0,1.890625 0.453125,2.375 0.21875,0.21875 0.65625,0.671875 1.890625,0.671875 1.46875,0 2.03125,-1.25 2.171875,-1.609375 H 6.265625 V 0.140625 L 8.3125,0 v -0.453125 c -1.015625,0 -1.171875,-0.09375 -1.171875,-0.921875 v -6.171875 z m 0,0"
             id="path39" />
        </g>
        <g
           id="use24"
           transform="translate(105.78637,13.947)">
          <path
             d="M 6.875,-6.953125 H 8.828125 V -7.40625 h -2 v -2.078125 c 0,-1.4375 0.734375,-2.328125 1.46875,-2.328125 0.21875,0 0.484375,0.0625 0.65625,0.1875 -0.140625,0.03125 -0.5,0.15625 -0.5,0.59375 0,0.4375 0.34375,0.578125 0.59375,0.578125 0.234375,0 0.578125,-0.140625 0.578125,-0.578125 0,-0.65625 -0.625,-1.0625 -1.3125,-1.0625 -0.671875,0 -1.21875,0.328125 -1.65625,0.75 -0.390625,-0.578125 -1.046875,-0.75 -1.71875,-0.75 -1.34375,0 -3.234375,0.78125 -3.234375,2.671875 v 2.015625 h -1.375 v 0.453125 h 1.375 V -1.1875 c 0,0.65625 -0.0625,0.734375 -1.171875,0.734375 V 0 c 0.421875,-0.03125 1.171875,-0.03125 1.609375,-0.03125 0.4375,0 1.203125,0 1.609375,0.03125 v -0.453125 c -1.09375,0 -1.171875,-0.0625 -1.171875,-0.734375 v -5.765625 h 3.40625 V -1.1875 c 0,0.65625 -0.0625,0.734375 -1.15625,0.734375 V 0 c 0.40625,-0.03125 1.203125,-0.03125 1.640625,-0.03125 0.5,0 1.390625,0 1.84375,0.03125 v -0.453125 c -1.234375,0 -1.4375,0 -1.4375,-0.765625 z M 2.546875,-7.40625 v -2.015625 c 0,-1.5625 1.203125,-2.390625 2.359375,-2.390625 0.265625,0 0.9375,0.04687 1.34375,0.4375 -0.3125,0.01563 -0.609375,0.140625 -0.609375,0.578125 0,0.453125 0.40625,0.5625 0.4375,0.5625 -0.09375,0.3125 -0.09375,0.65625 -0.09375,0.78125 v 2.046875 z m 0,0"
             id="path40" />
        </g>
      </g>
    </g>
    <g
       transform="translate(106.76753,159.51132)"
       id="g66"
       style="fill:#c200c2;fill-opacity:0.833803">
      <g
         fill="#000000"
         fill-opacity="1"
         id="g53"
         transform="matrix(0.352778,0,0,0.352778,-0.984206,-0.654138)"
         style="fill:#c200c2;fill-opacity:0.833803">
        <g
           id="use9"
           transform="translate(1.993,13.948)"
           style="fill:#c200c2;fill-opacity:0.833803">
          <path
             d="m 7.546875,-11.6875 c 0,-0.3125 -0.015625,-0.328125 -0.125,-0.328125 -0.109375,0 -0.140625,0.0625 -0.203125,0.21875 l -0.515625,1.140625 c -0.65625,-0.953125 -1.65625,-1.375 -2.75,-1.375 -1.75,0 -3.15625,1.390625 -3.15625,3.140625 0,0.546875 0.109375,1.296875 0.703125,2.015625 0.640625,0.796875 1.234375,0.9375 2.609375,1.296875 0.515625,0.140625 1.390625,0.359375 1.5625,0.4375 0.96875,0.40625 1.484375,1.4375 1.484375,2.40625 0,1.234375 -0.875,2.5625 -2.375,2.5625 -1.84375,0 -3.5625,-1.03125 -3.671875,-3.4375 -0.03125,-0.28125 -0.046875,-0.296875 -0.15625,-0.296875 -0.140625,0 -0.15625,0.015625 -0.15625,0.359375 V -0.0625 c 0,0.296875 0.015625,0.328125 0.109375,0.328125 0.125,0 0.15625,-0.09375 0.40625,-0.625 0.015625,-0.046875 0.015625,-0.09375 0.34375,-0.75 0.859375,1.140625 2.296875,1.390625 3.125,1.390625 1.875,0 3.203125,-1.578125 3.203125,-3.390625 0,-0.90625 -0.328125,-1.59375 -0.515625,-1.90625 C 6.75,-6.109375 5.96875,-6.3125 5.140625,-6.53125 5.03125,-6.578125 5,-6.578125 4.03125,-6.8125 3.09375,-7.0625 2.703125,-7.1875 2.265625,-7.640625 1.796875,-8.171875 1.625,-8.734375 1.625,-9.28125 c 0,-1.125 0.890625,-2.34375 2.359375,-2.34375 1.8125,0 2.953125,1.296875 3.21875,3.453125 0.046875,0.296875 0.0625,0.3125 0.1875,0.3125 0.15625,0 0.15625,-0.046875 0.15625,-0.34375 z m 0,0"
             id="path21"
             style="fill:#c200c2;fill-opacity:0.833803" />
        </g>
        <g
           id="use10"
           transform="translate(10.788348,13.948)"
           style="fill:#c200c2;fill-opacity:0.833803">
          <path
             d="m 6.71875,-5.890625 c 0.421875,-1.046875 1.203125,-1.0625 1.4375,-1.0625 V -7.40625 c -0.328125,0.015625 -0.75,0.03125 -1.078125,0.03125 -0.359375,0 -0.9375,0 -1.28125,-0.03125 v 0.453125 c 0.65625,0.046875 0.671875,0.53125 0.671875,0.671875 0,0.171875 -0.03125,0.25 -0.109375,0.46875 l -1.875,4.640625 -2.0625,-5.03125 C 2.34375,-6.40625 2.34375,-6.53125 2.34375,-6.546875 c 0,-0.375 0.390625,-0.40625 0.8125,-0.40625 V -7.40625 C 2.734375,-7.375 2,-7.375 1.5625,-7.375 c -0.453125,0 -1.015625,0 -1.390625,-0.03125 v 0.453125 c 0.9375,0 1.03125,0.078125 1.25,0.640625 L 4,0 C 3.21875,2.03125 2.765625,3.21875 1.6875,3.21875 1.5,3.21875 1.0625,3.171875 0.75,2.859375 1.15625,2.828125 1.328125,2.578125 1.328125,2.296875 1.328125,2 1.125,1.734375 0.78125,1.734375 0.390625,1.734375 0.203125,2 0.203125,2.3125 0.203125,3 0.90625,3.5 1.6875,3.5 c 1,0 1.625,-0.96875 1.96875,-1.828125 z m 0,0"
             id="path52"
             style="fill:#c200c2;fill-opacity:0.833803" />
        </g>
        <g
           id="g52"
           transform="translate(19.132652,13.948)"
           style="fill:#c200c2;fill-opacity:0.833803">
          <path
             d="m 7.140625,-5.234375 c 0,-0.875 -0.171875,-2.3125 -2.203125,-2.3125 -1.359375,0 -2.0625,1.0625 -2.3125,1.75 H 2.59375 v -1.75 l -2.03125,0.1875 v 0.453125 c 1.015625,0 1.171875,0.109375 1.171875,0.9375 v 4.78125 c 0,0.65625 -0.0625,0.734375 -1.171875,0.734375 V 0 c 0.421875,-0.03125 1.171875,-0.03125 1.625,-0.03125 0.453125,0 1.21875,0 1.640625,0.03125 v -0.453125 c -1.109375,0 -1.171875,-0.0625 -1.171875,-0.734375 V -4.5 c 0,-1.578125 0.953125,-2.765625 2.171875,-2.765625 1.265625,0 1.40625,1.140625 1.40625,1.96875 V -1.1875 c 0,0.65625 -0.0625,0.734375 -1.171875,0.734375 V 0 c 0.40625,-0.03125 1.171875,-0.03125 1.625,-0.03125 0.4375,0 1.21875,0 1.625,0.03125 v -0.453125 c -1.09375,0 -1.171875,-0.0625 -1.171875,-0.734375 z m 0,0"
             id="path23"
             style="fill:#c200c2;fill-opacity:0.833803" />
        </g>
      </g>
      <g
         fill="#000000"
         fill-opacity="1"
         id="g60"
         transform="matrix(0.352778,0,0,0.352778,-0.984206,-0.654138)"
         style="fill:#c200c2;fill-opacity:0.833803">
        <g
           id="g54"
           transform="translate(27.4804,13.948)"
           style="fill:#c200c2;fill-opacity:0.833803">
          <path
             d="M 2.59375,-6.953125 H 5.015625 V -7.40625 H 2.59375 v -3.1875 H 2.296875 C 2.25,-8.8125 1.65625,-7.265625 0.1875,-7.234375 v 0.28125 h 1.5 V -2.125 c 0,0.328125 0,2.265625 2,2.265625 1.015625,0 1.59375,-1 1.59375,-2.28125 v -0.96875 h -0.3125 v 0.953125 c 0,1.1875 -0.453125,1.984375 -1.1875,1.984375 -0.5,0 -1.1875,-0.34375 -1.1875,-1.90625 z m 0,0"
             id="path53"
             style="fill:#c200c2;fill-opacity:0.833803" />
        </g>
        <g
           id="g55"
           transform="translate(33.576374,13.948)"
           style="fill:#c200c2;fill-opacity:0.833803">
          <path
             d="m 6.203125,-4.453125 c 0,-1.140625 0,-1.75 -0.734375,-2.421875 -0.625,-0.5625 -1.375,-0.734375 -1.953125,-0.734375 -1.359375,0 -2.34375,1.0625 -2.34375,2.203125 0,0.640625 0.515625,0.671875 0.625,0.671875 0.21875,0 0.609375,-0.140625 0.609375,-0.625 0,-0.421875 -0.328125,-0.609375 -0.609375,-0.609375 -0.078125,0 -0.15625,0.015625 -0.21875,0.03125 0.375,-1.09375 1.296875,-1.390625 1.90625,-1.390625 0.859375,0 1.796875,0.75 1.796875,2.203125 v 0.75 C 4.265625,-4.34375 3.046875,-4.203125 2.078125,-3.6875 1,-3.078125 0.6875,-2.21875 0.6875,-1.5625 c 0,1.328125 1.546875,1.703125 2.46875,1.703125 0.9375,0 1.8125,-0.53125 2.203125,-1.515625 0.03125,0.75 0.515625,1.4375 1.265625,1.4375 0.359375,0 1.28125,-0.234375 1.28125,-1.59375 V -2.5 h -0.3125 v 0.984375 c 0,1.046875 -0.46875,1.1875 -0.6875,1.1875 -0.703125,0 -0.703125,-0.890625 -0.703125,-1.65625 z m -0.921875,2.0625 c 0,1.5 -1.0625,2.25 -2.015625,2.25 -0.859375,0 -1.53125,-0.640625 -1.53125,-1.421875 0,-0.515625 0.234375,-1.4375 1.234375,-1.984375 0.8125,-0.46875 1.765625,-0.53125 2.3125,-0.5625 z m 0,0"
             id="path54"
             style="fill:#c200c2;fill-opacity:0.833803" />
        </g>
        <g
           id="g56"
           transform="translate(41.471355,13.948)"
           style="fill:#c200c2;fill-opacity:0.833803">
          <path
             d="m 6.015625,-6.03125 c -0.328125,0 -0.8125,0 -0.8125,0.609375 0,0.484375 0.390625,0.625 0.609375,0.625 0.125,0 0.625,-0.0625 0.625,-0.65625 0,-1.234375 -1.171875,-2.15625 -2.5,-2.15625 -1.8125,0 -3.375,1.6875 -3.375,3.890625 0,2.296875 1.625,3.859375 3.375,3.859375 2.140625,0 2.671875,-1.984375 2.671875,-2.171875 0,-0.0625 -0.015625,-0.125 -0.140625,-0.125 -0.109375,0 -0.125,0.015625 -0.203125,0.25 C 5.8125,-0.515625 4.84375,-0.171875 4.09375,-0.171875 3,-0.171875 1.671875,-1.1875 1.671875,-3.734375 c 0,-2.625 1.265625,-3.5625 2.28125,-3.5625 0.671875,0 1.671875,0.328125 2.0625,1.265625 z m 0,0"
             id="path55"
             style="fill:#c200c2;fill-opacity:0.833803" />
        </g>
        <g
           id="g57"
           transform="translate(48.467693,13.948)"
           style="fill:#c200c2;fill-opacity:0.833803">
          <path
             d="M 2.59375,-6.953125 H 5.015625 V -7.40625 H 2.59375 v -3.1875 H 2.296875 C 2.25,-8.8125 1.65625,-7.265625 0.1875,-7.234375 v 0.28125 h 1.5 V -2.125 c 0,0.328125 0,2.265625 2,2.265625 1.015625,0 1.59375,-1 1.59375,-2.28125 v -0.96875 h -0.3125 v 0.953125 c 0,1.1875 -0.453125,1.984375 -1.1875,1.984375 -0.5,0 -1.1875,-0.34375 -1.1875,-1.90625 z m 0,0"
             id="path56"
             style="fill:#c200c2;fill-opacity:0.833803" />
        </g>
        <g
           id="g58"
           transform="translate(54.563667,13.948)"
           style="fill:#c200c2;fill-opacity:0.833803">
          <path
             d="m 2.671875,-10.609375 c 0,-0.375 -0.3125,-0.703125 -0.703125,-0.703125 -0.390625,0 -0.71875,0.3125 -0.71875,0.703125 0,0.375 0.3125,0.703125 0.71875,0.703125 0.375,0 0.703125,-0.296875 0.703125,-0.703125 z m -2.015625,3.25 v 0.453125 c 0.96875,0 1.09375,0.109375 1.09375,0.9375 v 4.78125 c 0,0.65625 -0.0625,0.734375 -1.171875,0.734375 V 0 C 1,-0.03125 1.734375,-0.03125 2.171875,-0.03125 c 0.40625,0 1.109375,0 1.515625,0.03125 v -0.453125 c -1.015625,0 -1.046875,-0.09375 -1.046875,-0.71875 v -6.375 z m 0,0"
             id="path57"
             style="fill:#c200c2;fill-opacity:0.833803" />
        </g>
        <g
           id="g59"
           transform="translate(58.86063,13.948)"
           style="fill:#c200c2;fill-opacity:0.833803">
          <path
             d="m 6.015625,-6.03125 c -0.328125,0 -0.8125,0 -0.8125,0.609375 0,0.484375 0.390625,0.625 0.609375,0.625 0.125,0 0.625,-0.0625 0.625,-0.65625 0,-1.234375 -1.171875,-2.15625 -2.5,-2.15625 -1.8125,0 -3.375,1.6875 -3.375,3.890625 0,2.296875 1.625,3.859375 3.375,3.859375 2.140625,0 2.671875,-1.984375 2.671875,-2.171875 0,-0.0625 -0.015625,-0.125 -0.140625,-0.125 -0.109375,0 -0.125,0.015625 -0.203125,0.25 C 5.8125,-0.515625 4.84375,-0.171875 4.09375,-0.171875 3,-0.171875 1.671875,-1.1875 1.671875,-3.734375 c 0,-2.625 1.265625,-3.5625 2.28125,-3.5625 0.671875,0 1.671875,0.328125 2.0625,1.265625 z m 0,0"
             id="path58"
             style="fill:#c200c2;fill-opacity:0.833803" />
        </g>
      </g>
      <g
         fill="#000000"
         fill-opacity="1"
         id="g65"
         transform="matrix(0.352778,0,0,0.352778,-0.984206,-0.654138)"
         style="fill:#c200c2;fill-opacity:0.833803">
        <g
           id="g61"
           transform="translate(71.056023,13.948)"
           style="fill:#c200c2;fill-opacity:0.833803">
          <path
             d="m 7.546875,-11.6875 c 0,-0.3125 -0.015625,-0.328125 -0.125,-0.328125 -0.109375,0 -0.140625,0.0625 -0.203125,0.21875 l -0.515625,1.140625 c -0.65625,-0.953125 -1.65625,-1.375 -2.75,-1.375 -1.75,0 -3.15625,1.390625 -3.15625,3.140625 0,0.546875 0.109375,1.296875 0.703125,2.015625 0.640625,0.796875 1.234375,0.9375 2.609375,1.296875 0.515625,0.140625 1.390625,0.359375 1.5625,0.4375 0.96875,0.40625 1.484375,1.4375 1.484375,2.40625 0,1.234375 -0.875,2.5625 -2.375,2.5625 -1.84375,0 -3.5625,-1.03125 -3.671875,-3.4375 -0.03125,-0.28125 -0.046875,-0.296875 -0.15625,-0.296875 -0.140625,0 -0.15625,0.015625 -0.15625,0.359375 V -0.0625 c 0,0.296875 0.015625,0.328125 0.109375,0.328125 0.125,0 0.15625,-0.09375 0.40625,-0.625 0.015625,-0.046875 0.015625,-0.09375 0.34375,-0.75 0.859375,1.140625 2.296875,1.390625 3.125,1.390625 1.875,0 3.203125,-1.578125 3.203125,-3.390625 0,-0.90625 -0.328125,-1.59375 -0.515625,-1.90625 C 6.75,-6.109375 5.96875,-6.3125 5.140625,-6.53125 5.03125,-6.578125 5,-6.578125 4.03125,-6.8125 3.09375,-7.0625 2.703125,-7.1875 2.265625,-7.640625 1.796875,-8.171875 1.625,-8.734375 1.625,-9.28125 c 0,-1.125 0.890625,-2.34375 2.359375,-2.34375 1.8125,0 2.953125,1.296875 3.21875,3.453125 0.046875,0.296875 0.0625,0.3125 0.1875,0.3125 0.15625,0 0.15625,-0.046875 0.15625,-0.34375 z m 0,0"
             id="path60"
             style="fill:#c200c2;fill-opacity:0.833803" />
        </g>
        <g
           id="g62"
           transform="translate(79.851372,13.948)"
           style="fill:#c200c2;fill-opacity:0.833803">
          <path
             d="M 2.59375,-6.953125 H 5.015625 V -7.40625 H 2.59375 v -3.1875 H 2.296875 C 2.25,-8.8125 1.65625,-7.265625 0.1875,-7.234375 v 0.28125 h 1.5 V -2.125 c 0,0.328125 0,2.265625 2,2.265625 1.015625,0 1.59375,-1 1.59375,-2.28125 v -0.96875 h -0.3125 v 0.953125 c 0,1.1875 -0.453125,1.984375 -1.1875,1.984375 -0.5,0 -1.1875,-0.34375 -1.1875,-1.90625 z m 0,0"
             id="path61"
             style="fill:#c200c2;fill-opacity:0.833803" />
        </g>
        <g
           id="g63"
           transform="translate(85.947342,13.948)"
           style="fill:#c200c2;fill-opacity:0.833803">
          <path
             d="m 5.0625,-7.359375 v 0.453125 c 1.015625,0 1.171875,0.109375 1.171875,0.9375 v 3.125 c 0,1.453125 -0.78125,2.703125 -2.046875,2.703125 -1.421875,0 -1.53125,-0.84375 -1.53125,-1.734375 v -5.671875 l -2.09375,0.1875 v 0.453125 c 0.6875,0 1.15625,0 1.171875,0.6875 v 3.3125 c 0,1.15625 0,1.890625 0.453125,2.375 0.21875,0.21875 0.65625,0.671875 1.890625,0.671875 1.46875,0 2.03125,-1.25 2.171875,-1.609375 H 6.265625 V 0.140625 L 8.3125,0 v -0.453125 c -1.015625,0 -1.171875,-0.09375 -1.171875,-0.921875 v -6.171875 z m 0,0"
             id="path62"
             style="fill:#c200c2;fill-opacity:0.833803" />
        </g>
        <g
           id="g64"
           transform="translate(94.742691,13.948)"
           style="fill:#c200c2;fill-opacity:0.833803">
          <path
             d="M 6.875,-6.953125 H 8.828125 V -7.40625 h -2 v -2.078125 c 0,-1.4375 0.734375,-2.328125 1.46875,-2.328125 0.21875,0 0.484375,0.0625 0.65625,0.1875 -0.140625,0.03125 -0.5,0.15625 -0.5,0.59375 0,0.4375 0.34375,0.578125 0.59375,0.578125 0.234375,0 0.578125,-0.140625 0.578125,-0.578125 0,-0.65625 -0.625,-1.0625 -1.3125,-1.0625 -0.671875,0 -1.21875,0.328125 -1.65625,0.75 -0.390625,-0.578125 -1.046875,-0.75 -1.71875,-0.75 -1.34375,0 -3.234375,0.78125 -3.234375,2.671875 v 2.015625 h -1.375 v 0.453125 h 1.375 V -1.1875 c 0,0.65625 -0.0625,0.734375 -1.171875,0.734375 V 0 c 0.421875,-0.03125 1.171875,-0.03125 1.609375,-0.03125 0.4375,0 1.203125,0 1.609375,0.03125 v -0.453125 c -1.09375,0 -1.171875,-0.0625 -1.171875,-0.734375 v -5.765625 h 3.40625 V -1.1875 c 0,0.65625 -0.0625,0.734375 -1.15625,0.734375 V 0 c 0.40625,-0.03125 1.203125,-0.03125 1.640625,-0.03125 0.5,0 1.390625,0 1.84375,0.03125 v -0.453125 c -1.234375,0 -1.4375,0 -1.4375,-0.765625 z M 2.546875,-7.40625 v -2.015625 c 0,-1.5625 1.203125,-2.390625 2.359375,-2.390625 0.265625,0 0.9375,0.04687 1.34375,0.4375 -0.3125,0.01563 -0.609375,0.140625 -0.609375,0.578125 0,0.453125 0.40625,0.5625 0.4375,0.5625 -0.09375,0.3125 -0.09375,0.65625 -0.09375,0.78125 v 2.046875 z m 0,0"
             id="path63"
             style="fill:#c200c2;fill-opacity:0.833803" />
        </g>
      </g>
    </g>
    <g
       transform="rotate(-19.057418,645.55217,-217.87484)"
       id="g83"
       style="fill:#0100c2;fill-opacity:0.833803">
      <g
         fill="#000000"
         fill-opacity="1"
         id="g75"
         transform="matrix(0.352778,0,0,0.352778,-1.01728,-0.701454)"
         style="fill:#0100c2;fill-opacity:0.833803">
        <g
           id="g67"
           transform="translate(1.993,13.754)"
           style="fill:#0100c2;fill-opacity:0.833803">
          <path
             d="m 6.75,-5.875 c 1.640625,-0.328125 3.015625,-1.421875 3.015625,-2.796875 0,-1.625 -1.828125,-3.09375 -4.234375,-3.09375 H 0.890625 v 0.453125 c 1.1875,0 1.375,0 1.375,0.78125 v 9.3125 c 0,0.765625 -0.1875,0.765625 -1.375,0.765625 V 0 c 0.5,-0.03125 1.40625,-0.03125 1.9375,-0.03125 0.53125,0 1.421875,0 1.921875,0.03125 v -0.453125 c -1.1875,0 -1.375,0 -1.375,-0.765625 V -5.75 h 2.015625 c 0.984375,0 1.53125,0.390625 1.765625,0.625 0.703125,0.671875 0.703125,1.125 0.703125,2.296875 0,1.15625 0,1.75 0.515625,2.328125 0.640625,0.703125 1.53125,0.78125 1.90625,0.78125 1.265625,0 1.46875,-1.4375 1.46875,-1.734375 0,-0.09375 0,-0.21875 -0.15625,-0.21875 -0.140625,0 -0.15625,0.109375 -0.15625,0.171875 C 11.34375,-0.375 10.84375,0 10.3125,0 9.359375,0 9.265625,-1.078125 9.15625,-2.140625 9.109375,-2.5 9.078125,-2.75 9.046875,-3.140625 8.9375,-4 8.796875,-5.25 6.75,-5.875 Z M 5.34375,-6.03125 H 3.375 v -4.609375 c 0,-0.59375 0.03125,-0.671875 0.71875,-0.671875 h 1.265625 c 1.421875,0 3.09375,0.5 3.09375,2.640625 0,2.21875 -1.828125,2.640625 -3.109375,2.640625 z m 0,0"
             id="path66"
             style="fill:#0100c2;fill-opacity:0.833803" />
        </g>
        <g
           id="g68"
           transform="translate(13.70808,13.754)"
           style="fill:#0100c2;fill-opacity:0.833803">
          <path
             d="m 6.5625,-4.046875 c 0.0625,-0.0625 0.0625,-0.109375 0.0625,-0.28125 0,-1.75 -0.921875,-3.28125 -2.890625,-3.28125 -1.828125,0 -3.265625,1.734375 -3.265625,3.859375 0,2.234375 1.625,3.890625 3.453125,3.890625 1.9375,0 2.6875,-1.828125 2.6875,-2.1875 0,-0.125 -0.09375,-0.125 -0.140625,-0.125 -0.109375,0 -0.125,0.03125 -0.203125,0.25 -0.375,1.171875 -1.328125,1.75 -2.21875,1.75 C 3.3125,-0.171875 2.5625,-0.578125 2.09375,-1.34375 1.5625,-2.21875 1.5625,-3.234375 1.5625,-4.046875 Z M 1.578125,-4.3125 c 0.125,-2.46875 1.453125,-3.015625 2.140625,-3.015625 1.171875,0 1.96875,1.09375 1.984375,3.015625 z m 0,0"
             id="path67"
             style="fill:#0100c2;fill-opacity:0.833803" />
        </g>
        <g
           id="g69"
           transform="translate(20.704418,13.754)"
           style="fill:#0100c2;fill-opacity:0.833803">
          <path
             d="M 3.78125,2.90625 C 2.6875,2.90625 2.625,2.84375 2.625,2.171875 v -3.21875 c 0.484375,0.71875 1.21875,1.1875 2.125,1.1875 1.71875,0 3.46875,-1.515625 3.46875,-3.859375 0,-2.171875 -1.5,-3.828125 -3.28125,-3.828125 -1.03125,0 -1.875,0.578125 -2.359375,1.265625 v -1.265625 l -2.046875,0.1875 v 0.453125 c 1.015625,0 1.171875,0.109375 1.171875,0.9375 v 8.140625 c 0,0.65625 -0.0625,0.734375 -1.171875,0.734375 v 0.453125 c 0.421875,-0.03125 1.171875,-0.03125 1.625,-0.03125 0.4375,0 1.21875,0 1.625,0.03125 z M 2.625,-5.40625 c 0,-0.234375 0,-0.609375 0.65625,-1.234375 0.09375,-0.078125 0.671875,-0.59375 1.546875,-0.59375 1.25,0 2.28125,1.5625 2.28125,3.53125 0,1.96875 -1.09375,3.5625 -2.453125,3.5625 -0.625,0 -1.296875,-0.296875 -1.8125,-1.09375 C 2.625,-1.625 2.625,-1.71875 2.625,-2 Z m 0,0"
             id="path68"
             style="fill:#0100c2;fill-opacity:0.833803" />
        </g>
        <g
           id="g70"
           transform="translate(29.499765,13.754)"
           style="fill:#0100c2;fill-opacity:0.833803">
          <path
             d="m 2.578125,-4.0625 c 0,-1.65625 0.703125,-3.203125 2,-3.203125 0.125,0 0.25,0.015625 0.359375,0.0625 0,0 -0.375,0.125 -0.375,0.578125 0,0.40625 0.328125,0.578125 0.578125,0.578125 0.21875,0 0.59375,-0.125 0.59375,-0.59375 0,-0.5625 -0.546875,-0.90625 -1.140625,-0.90625 -1.3125,0 -1.875,1.28125 -2.046875,1.875 H 2.53125 v -1.875 l -2,0.1875 v 0.453125 c 1.015625,0 1.171875,0.109375 1.171875,0.9375 v 4.78125 c 0,0.65625 -0.0625,0.734375 -1.171875,0.734375 V 0 c 0.421875,-0.03125 1.203125,-0.03125 1.65625,-0.03125 0.5,0 1.375,0 1.84375,0.03125 v -0.453125 c -1.234375,0 -1.453125,0 -1.453125,-0.765625 z m 0,0"
             id="path69"
             style="fill:#0100c2;fill-opacity:0.833803" />
        </g>
        <g
           id="g71"
           transform="translate(35.595737,13.754)"
           style="fill:#0100c2;fill-opacity:0.833803">
          <path
             d="m 6.5625,-4.046875 c 0.0625,-0.0625 0.0625,-0.109375 0.0625,-0.28125 0,-1.75 -0.921875,-3.28125 -2.890625,-3.28125 -1.828125,0 -3.265625,1.734375 -3.265625,3.859375 0,2.234375 1.625,3.890625 3.453125,3.890625 1.9375,0 2.6875,-1.828125 2.6875,-2.1875 0,-0.125 -0.09375,-0.125 -0.140625,-0.125 -0.109375,0 -0.125,0.03125 -0.203125,0.25 -0.375,1.171875 -1.328125,1.75 -2.21875,1.75 C 3.3125,-0.171875 2.5625,-0.578125 2.09375,-1.34375 1.5625,-2.21875 1.5625,-3.234375 1.5625,-4.046875 Z M 1.578125,-4.3125 c 0.125,-2.46875 1.453125,-3.015625 2.140625,-3.015625 1.171875,0 1.96875,1.09375 1.984375,3.015625 z m 0,0"
             id="path70"
             style="fill:#0100c2;fill-opacity:0.833803" />
        </g>
        <g
           id="g72"
           transform="translate(42.592079,13.754)"
           style="fill:#0100c2;fill-opacity:0.833803">
          <path
             d="m 5.328125,-7.265625 c 0,-0.3125 -0.03125,-0.328125 -0.125,-0.328125 -0.078125,0 -0.09375,0.015625 -0.296875,0.28125 -0.046875,0.0625 -0.203125,0.234375 -0.25,0.296875 -0.5625,-0.578125 -1.328125,-0.59375 -1.625,-0.59375 -1.90625,0 -2.59375,1 -2.59375,2 0,1.546875 1.75,1.90625 2.25,2.015625 C 3.765625,-3.375 4.15625,-3.3125 4.515625,-3 c 0.21875,0.203125 0.59375,0.59375 0.59375,1.203125 0,0.734375 -0.40625,1.65625 -2,1.65625 -1.484375,0 -2.03125,-1.140625 -2.328125,-2.65625 -0.0625,-0.234375 -0.0625,-0.25 -0.203125,-0.25 -0.125,0 -0.140625,0.015625 -0.140625,0.359375 v 2.484375 c 0,0.3125 0.015625,0.328125 0.109375,0.328125 0.09375,0 0.109375,-0.015625 0.1875,-0.15625 0.109375,-0.15625 0.375,-0.578125 0.46875,-0.75 0.34375,0.46875 0.953125,0.921875 1.90625,0.921875 1.71875,0 2.625,-0.9375 2.625,-2.28125 0,-0.875 -0.46875,-1.34375 -0.6875,-1.546875 C 4.53125,-4.21875 3.921875,-4.34375 3.203125,-4.484375 2.25,-4.6875 1.046875,-4.921875 1.046875,-5.96875 c 0,-0.453125 0.25,-1.40625 1.984375,-1.40625 1.84375,0 1.9375,1.734375 1.984375,2.28125 C 5.03125,-5.015625 5.109375,-5 5.171875,-5 c 0.15625,0 0.15625,-0.046875 0.15625,-0.34375 z m 0,0"
             id="path71"
             style="fill:#0100c2;fill-opacity:0.833803" />
        </g>
        <g
           id="g73"
           transform="translate(48.779293,13.754)"
           style="fill:#0100c2;fill-opacity:0.833803">
          <path
             d="m 6.5625,-4.046875 c 0.0625,-0.0625 0.0625,-0.109375 0.0625,-0.28125 0,-1.75 -0.921875,-3.28125 -2.890625,-3.28125 -1.828125,0 -3.265625,1.734375 -3.265625,3.859375 0,2.234375 1.625,3.890625 3.453125,3.890625 1.9375,0 2.6875,-1.828125 2.6875,-2.1875 0,-0.125 -0.09375,-0.125 -0.140625,-0.125 -0.109375,0 -0.125,0.03125 -0.203125,0.25 -0.375,1.171875 -1.328125,1.75 -2.21875,1.75 C 3.3125,-0.171875 2.5625,-0.578125 2.09375,-1.34375 1.5625,-2.21875 1.5625,-3.234375 1.5625,-4.046875 Z M 1.578125,-4.3125 c 0.125,-2.46875 1.453125,-3.015625 2.140625,-3.015625 1.171875,0 1.96875,1.09375 1.984375,3.015625 z m 0,0"
             id="path72"
             style="fill:#0100c2;fill-opacity:0.833803" />
        </g>
        <g
           id="g74"
           transform="translate(55.775631,13.754)"
           style="fill:#0100c2;fill-opacity:0.833803">
          <path
             d="m 7.140625,-5.234375 c 0,-0.875 -0.171875,-2.3125 -2.203125,-2.3125 -1.359375,0 -2.0625,1.0625 -2.3125,1.75 H 2.59375 v -1.75 l -2.03125,0.1875 v 0.453125 c 1.015625,0 1.171875,0.109375 1.171875,0.9375 v 4.78125 c 0,0.65625 -0.0625,0.734375 -1.171875,0.734375 V 0 c 0.421875,-0.03125 1.171875,-0.03125 1.625,-0.03125 0.453125,0 1.21875,0 1.640625,0.03125 v -0.453125 c -1.109375,0 -1.171875,-0.0625 -1.171875,-0.734375 V -4.5 c 0,-1.578125 0.953125,-2.765625 2.171875,-2.765625 1.265625,0 1.40625,1.140625 1.40625,1.96875 V -1.1875 c 0,0.65625 -0.0625,0.734375 -1.171875,0.734375 V 0 c 0.40625,-0.03125 1.171875,-0.03125 1.625,-0.03125 0.4375,0 1.21875,0 1.625,0.03125 v -0.453125 c -1.09375,0 -1.171875,-0.0625 -1.171875,-0.734375 z m 0,0"
             id="path73"
             style="fill:#0100c2;fill-opacity:0.833803" />
        </g>
      </g>
      <g
         fill="#000000"
         fill-opacity="1"
         id="g82"
         transform="matrix(0.352778,0,0,0.352778,-1.01728,-0.701454)"
         style="fill:#0100c2;fill-opacity:0.833803">
        <g
           id="g76"
           transform="translate(64.123383,13.754)"
           style="fill:#0100c2;fill-opacity:0.833803">
          <path
             d="M 2.59375,-6.953125 H 5.015625 V -7.40625 H 2.59375 v -3.1875 H 2.296875 C 2.25,-8.8125 1.65625,-7.265625 0.1875,-7.234375 v 0.28125 h 1.5 V -2.125 c 0,0.328125 0,2.265625 2,2.265625 1.015625,0 1.59375,-1 1.59375,-2.28125 v -0.96875 h -0.3125 v 0.953125 c 0,1.1875 -0.453125,1.984375 -1.1875,1.984375 -0.5,0 -1.1875,-0.34375 -1.1875,-1.90625 z m 0,0"
             id="path75"
             style="fill:#0100c2;fill-opacity:0.833803" />
        </g>
        <g
           id="g77"
           transform="translate(70.219353,13.754)"
           style="fill:#0100c2;fill-opacity:0.833803">
          <path
             d="m 6.203125,-4.453125 c 0,-1.140625 0,-1.75 -0.734375,-2.421875 -0.625,-0.5625 -1.375,-0.734375 -1.953125,-0.734375 -1.359375,0 -2.34375,1.0625 -2.34375,2.203125 0,0.640625 0.515625,0.671875 0.625,0.671875 0.21875,0 0.609375,-0.140625 0.609375,-0.625 0,-0.421875 -0.328125,-0.609375 -0.609375,-0.609375 -0.078125,0 -0.15625,0.015625 -0.21875,0.03125 0.375,-1.09375 1.296875,-1.390625 1.90625,-1.390625 0.859375,0 1.796875,0.75 1.796875,2.203125 v 0.75 C 4.265625,-4.34375 3.046875,-4.203125 2.078125,-3.6875 1,-3.078125 0.6875,-2.21875 0.6875,-1.5625 c 0,1.328125 1.546875,1.703125 2.46875,1.703125 0.9375,0 1.8125,-0.53125 2.203125,-1.515625 0.03125,0.75 0.515625,1.4375 1.265625,1.4375 0.359375,0 1.28125,-0.234375 1.28125,-1.59375 V -2.5 h -0.3125 v 0.984375 c 0,1.046875 -0.46875,1.1875 -0.6875,1.1875 -0.703125,0 -0.703125,-0.890625 -0.703125,-1.65625 z m -0.921875,2.0625 c 0,1.5 -1.0625,2.25 -2.015625,2.25 -0.859375,0 -1.53125,-0.640625 -1.53125,-1.421875 0,-0.515625 0.234375,-1.4375 1.234375,-1.984375 0.8125,-0.46875 1.765625,-0.53125 2.3125,-0.5625 z m 0,0"
             id="path76"
             style="fill:#0100c2;fill-opacity:0.833803" />
        </g>
        <g
           id="g78"
           transform="translate(78.114334,13.754)"
           style="fill:#0100c2;fill-opacity:0.833803">
          <path
             d="M 2.59375,-6.953125 H 5.015625 V -7.40625 H 2.59375 v -3.1875 H 2.296875 C 2.25,-8.8125 1.65625,-7.265625 0.1875,-7.234375 v 0.28125 h 1.5 V -2.125 c 0,0.328125 0,2.265625 2,2.265625 1.015625,0 1.59375,-1 1.59375,-2.28125 v -0.96875 h -0.3125 v 0.953125 c 0,1.1875 -0.453125,1.984375 -1.1875,1.984375 -0.5,0 -1.1875,-0.34375 -1.1875,-1.90625 z m 0,0"
             id="path77"
             style="fill:#0100c2;fill-opacity:0.833803" />
        </g>
        <g
           id="g79"
           transform="translate(84.210304,13.754)"
           style="fill:#0100c2;fill-opacity:0.833803">
          <path
             d="m 2.671875,-10.609375 c 0,-0.375 -0.3125,-0.703125 -0.703125,-0.703125 -0.390625,0 -0.71875,0.3125 -0.71875,0.703125 0,0.375 0.3125,0.703125 0.71875,0.703125 0.375,0 0.703125,-0.296875 0.703125,-0.703125 z m -2.015625,3.25 v 0.453125 c 0.96875,0 1.09375,0.109375 1.09375,0.9375 v 4.78125 c 0,0.65625 -0.0625,0.734375 -1.171875,0.734375 V 0 C 1,-0.03125 1.734375,-0.03125 2.171875,-0.03125 c 0.40625,0 1.109375,0 1.515625,0.03125 v -0.453125 c -1.015625,0 -1.046875,-0.09375 -1.046875,-0.71875 v -6.375 z m 0,0"
             id="path78"
             style="fill:#0100c2;fill-opacity:0.833803" />
        </g>
        <g
           id="g80"
           transform="translate(88.507271,13.754)"
           style="fill:#0100c2;fill-opacity:0.833803">
          <path
             d="m 7.421875,-3.6875 c 0,-2.203125 -1.609375,-3.921875 -3.484375,-3.921875 -1.875,0 -3.46875,1.71875 -3.46875,3.921875 0,2.171875 1.59375,3.828125 3.46875,3.828125 1.875,0 3.484375,-1.65625 3.484375,-3.828125 z M 3.9375,-0.171875 c -0.796875,0 -1.5,-0.484375 -1.890625,-1.15625 C 1.625,-2.09375 1.5625,-3.0625 1.5625,-3.828125 c 0,-0.71875 0.03125,-1.609375 0.484375,-2.390625 0.34375,-0.5625 1.015625,-1.109375 1.890625,-1.109375 0.78125,0 1.4375,0.421875 1.84375,1.03125 0.53125,0.796875 0.53125,1.9375 0.53125,2.46875 0,0.671875 -0.03125,1.703125 -0.5,2.53125 -0.46875,0.796875 -1.21875,1.125 -1.875,1.125 z m 0,0"
             id="path79"
             style="fill:#0100c2;fill-opacity:0.833803" />
        </g>
        <g
           id="g81"
           transform="translate(96.402252,13.754)"
           style="fill:#0100c2;fill-opacity:0.833803">
          <path
             d="m 7.140625,-5.234375 c 0,-0.875 -0.171875,-2.3125 -2.203125,-2.3125 -1.359375,0 -2.0625,1.0625 -2.3125,1.75 H 2.59375 v -1.75 l -2.03125,0.1875 v 0.453125 c 1.015625,0 1.171875,0.109375 1.171875,0.9375 v 4.78125 c 0,0.65625 -0.0625,0.734375 -1.171875,0.734375 V 0 c 0.421875,-0.03125 1.171875,-0.03125 1.625,-0.03125 0.453125,0 1.21875,0 1.640625,0.03125 v -0.453125 c -1.109375,0 -1.171875,-0.0625 -1.171875,-0.734375 V -4.5 c 0,-1.578125 0.953125,-2.765625 2.171875,-2.765625 1.265625,0 1.40625,1.140625 1.40625,1.96875 V -1.1875 c 0,0.65625 -0.0625,0.734375 -1.171875,0.734375 V 0 c 0.40625,-0.03125 1.171875,-0.03125 1.625,-0.03125 0.4375,0 1.21875,0 1.625,0.03125 v -0.453125 c -1.09375,0 -1.171875,-0.0625 -1.171875,-0.734375 z m 0,0"
             id="path80"
             style="fill:#0100c2;fill-opacity:0.833803" />
        </g>
      </g>
    </g>
    <ellipse
       style="fill:#00ff01;fill-opacity:1;stroke:#000000;stroke-width:1;stroke-opacity:1"
       id="path86"
       cx="70.965103"
       cy="230.68987"
       rx="11.081638"
       ry="10.975085" />
    <g
       transform="translate(68.408011,228.77157)"
       id="g89">
      <g
         fill="#000000"
         fill-opacity="1"
         id="g88"
         transform="matrix(0.352778,0,0,0.352778,-0.989718,-0.70216)">
        <g
           id="g87"
           transform="translate(1.993,13.756)">
          <path
             d="M 2.703125,-1.28125 C 2.546875,-0.671875 2.515625,-0.5 1.3125,-0.5 c -0.328125,0 -0.5,0 -0.5,0.3125 C 0.8125,0 0.90625,0 1.25,0 h 5.46875 c 3.46875,0 6.859375,-3.59375 6.859375,-7.4375 0,-2.484375 -1.46875,-4.328125 -3.9375,-4.328125 h -5.53125 c -0.328125,0 -0.46875,0 -0.46875,0.328125 0,0.171875 0.140625,0.171875 0.40625,0.171875 1.046875,0 1.046875,0.140625 1.046875,0.328125 0,0.03125 0,0.140625 -0.0625,0.40625 z m 3.640625,-9.3125 c 0.140625,-0.640625 0.21875,-0.671875 0.890625,-0.671875 H 9.125 c 1.625,0 3.09375,0.875 3.09375,3.265625 0,0.859375 -0.34375,3.84375 -2.015625,5.75 C 9.734375,-1.6875 8.421875,-0.5 6.4375,-0.5 H 4.484375 c -0.25,0 -0.28125,0 -0.390625,-0.015625 -0.1875,-0.015625 -0.203125,-0.046875 -0.203125,-0.1875 0,-0.125 0.03125,-0.234375 0.0625,-0.375 z m 0,0"
             id="path87" />
        </g>
      </g>
    </g>
    <g
       transform="translate(124.88175,215.55884)"
       id="g92">
      <g
         fill="#000000"
         fill-opacity="1"
         id="g91"
         transform="matrix(0.352778,0,0,0.352778,-0.984206,-0.70216)">
        <g
           id="g90"
           transform="translate(1.993,13.756)">
          <path
             d="m 6.3125,-10.4375 c 0.15625,-0.65625 0.21875,-0.828125 1.734375,-0.828125 0.453125,0 0.578125,0 0.578125,-0.328125 0,-0.171875 -0.1875,-0.171875 -0.25,-0.171875 -0.34375,0 -0.75,0.04687 -1.09375,0.04687 h -2.3125 c -0.3125,0 -0.703125,-0.04687 -1.03125,-0.04687 -0.125,0 -0.328125,0 -0.328125,0.328125 0,0.171875 0.15625,0.171875 0.421875,0.171875 1.046875,0 1.046875,0.140625 1.046875,0.328125 0,0.03125 0,0.140625 -0.0625,0.40625 l -2.328125,9.25 C 2.53125,-0.671875 2.5,-0.5 1.296875,-0.5 c -0.328125,0 -0.5,0 -0.5,0.3125 C 0.796875,0 0.890625,0 1.234375,0 h 7.71875 c 0.375,0 0.390625,-0.015625 0.515625,-0.328125 L 10.796875,-4 c 0.03125,-0.078125 0.0625,-0.1875 0.0625,-0.234375 0,-0.109375 -0.07813,-0.171875 -0.171875,-0.171875 -0.01563,0 -0.09375,0 -0.125,0.0625 -0.04687,0.015625 -0.04687,0.0625 -0.171875,0.390625 C 9.828125,-2.4375 9.0625,-0.5 6.140625,-0.5 H 4.5 c -0.25,0 -0.28125,0 -0.390625,-0.015625 -0.1875,-0.015625 -0.203125,-0.046875 -0.203125,-0.1875 0,-0.125 0.03125,-0.234375 0.078125,-0.375 z m 0,0"
             id="path89" />
        </g>
      </g>
    </g>
    <g
       transform="translate(32.605793,206.8214)"
       id="g95"
       style="fill:#feffff;fill-opacity:1">
      <g
         fill="#000000"
         fill-opacity="1"
         id="g94"
         transform="matrix(0.352778,0,0,0.352778,-1.01177,-0.57538)"
         style="fill:#feffff;fill-opacity:1">
        <g
           id="g93"
           transform="translate(1.993,13.756)"
           style="fill:#feffff;fill-opacity:1">
          <path
             d="m 10.9375,-11.96875 c 0,-0.15625 -0.125,-0.15625 -0.15625,-0.15625 -0.07813,0 -0.09375,0.01563 -0.296875,0.28125 -0.09375,0.125 -0.8125,1.015625 -0.828125,1.03125 -0.5625,-1.125 -1.703125,-1.3125 -2.421875,-1.3125 -2.1875,0 -4.171875,2 -4.171875,3.953125 0,1.28125 0.78125,2.046875 1.625,2.328125 0.1875,0.078125 1.203125,0.34375 1.71875,0.46875 0.875,0.25 1.09375,0.3125 1.46875,0.6875 0.0625,0.09375 0.40625,0.484375 0.40625,1.296875 0,1.59375 -1.484375,3.25 -3.203125,3.25 -1.40625,0 -2.984375,-0.59375 -2.984375,-2.53125 0,-0.328125 0.078125,-0.734375 0.125,-0.90625 0,-0.0625 0.015625,-0.140625 0.015625,-0.171875 0,-0.078125 -0.03125,-0.15625 -0.171875,-0.15625 -0.15625,0 -0.171875,0.03125 -0.234375,0.328125 l -0.875,3.53125 c 0,0.015625 -0.078125,0.234375 -0.078125,0.25 0,0.15625 0.140625,0.15625 0.171875,0.15625 0.078125,0 0.09375,-0.015625 0.296875,-0.265625 l 0.796875,-1.046875 c 0.40625,0.625 1.296875,1.3125 2.90625,1.3125 2.21875,0 4.25,-2.15625 4.25,-4.296875 0,-0.734375 -0.171875,-1.359375 -0.828125,-2 C 8.109375,-6.296875 7.796875,-6.390625 6.21875,-6.796875 5.0625,-7.109375 4.90625,-7.15625 4.59375,-7.4375 4.3125,-7.734375 4.078125,-8.140625 4.078125,-8.734375 c 0,-1.4375 1.46875,-2.921875 3.109375,-2.921875 1.6875,0 2.46875,1.03125 2.46875,2.671875 0,0.4375 -0.078125,0.90625 -0.078125,0.984375 0,0.140625 0.140625,0.140625 0.1875,0.140625 0.15625,0 0.171875,-0.046875 0.234375,-0.3125 z m 0,0"
             id="path92"
             style="fill:#feffff;fill-opacity:1" />
        </g>
      </g>
    </g>
    <g
       transform="translate(67.768685,170.80607)"
       id="g100"
       style="fill:#ff00ff;fill-opacity:1">
      <g
         fill="#000000"
         fill-opacity="1"
         id="g97"
         transform="matrix(0.352778,0,0,0.352778,-0.907036,-0.530975)"
         style="fill:#ff00ff;fill-opacity:1">
        <g
           id="g96"
           transform="translate(1.993,13.802)"
           style="fill:#ff00ff;fill-opacity:1">
          <path
             d="M 2.921875,-1.90625 C 2.328125,-0.890625 1.734375,-0.546875 0.90625,-0.5 0.71875,-0.484375 0.578125,-0.484375 0.578125,-0.171875 0.578125,-0.0625 0.671875,0 0.796875,0 1.109375,0 1.875,-0.03125 2.1875,-0.03125 2.6875,-0.03125 3.234375,0 3.71875,0 3.828125,0 4.03125,0 4.03125,-0.328125 4.03125,-0.484375 3.890625,-0.5 3.78125,-0.5 3.390625,-0.53125 3.0625,-0.671875 3.0625,-1.078125 c 0,-0.25 0.109375,-0.4375 0.328125,-0.8125 L 4.703125,-4.0625 H 9.09375 c 0.015625,0.15625 0.015625,0.296875 0.03125,0.453125 0.046875,0.4375 0.265625,2.234375 0.265625,2.5625 C 9.390625,-0.53125 8.5,-0.5 8.234375,-0.5 c -0.1875,0 -0.375,0 -0.375,0.3125 C 7.859375,0 8,0 8.109375,0 8.40625,0 8.75,-0.03125 9.046875,-0.03125 h 0.96875 c 1.0625,0 1.8125,0.03125 1.828125,0.03125 0.125,0 0.3125,0 0.3125,-0.328125 C 12.15625,-0.5 12,-0.5 11.75,-0.5 c -0.953125,0 -0.96875,-0.15625 -1.015625,-0.671875 l -1.0625,-10.75 c -0.03125,-0.34375 -0.09375,-0.375 -0.28125,-0.375 -0.171875,0 -0.28125,0.03125 -0.4375,0.296875 z M 5,-4.5625 l 3.453125,-5.78125 0.59375,5.78125 z m 0,0"
             id="path95"
             style="fill:#ff00ff;fill-opacity:1" />
        </g>
      </g>
      <g
         fill="#000000"
         fill-opacity="1"
         id="g99"
         transform="matrix(0.352778,0,0,0.352778,-0.907036,-0.530975)"
         style="fill:#ff00ff;fill-opacity:1">
        <g
           id="g98"
           transform="translate(14.629,7.5549998)"
           style="fill:#ff00ff;fill-opacity:1">
          <path
             d="M 3.28125,-5.109375 C 3.296875,-5.265625 3.296875,-5.5625 2.984375,-5.5625 c -0.1875,0 -0.34375,0.15625 -0.3125,0.3125 v 0.15625 L 2.84375,-3.234375 1.3125,-4.34375 C 1.203125,-4.40625 1.1875,-4.4375 1.09375,-4.4375 c -0.15625,0 -0.3125,0.171875 -0.3125,0.34375 0,0.1875 0.109375,0.234375 0.234375,0.296875 L 2.71875,-2.984375 1.0625,-2.1875 c -0.1875,0.09375 -0.28125,0.140625 -0.28125,0.328125 0,0.171875 0.15625,0.328125 0.3125,0.328125 0.09375,0 0.109375,0 0.40625,-0.21875 l 1.34375,-0.96875 -0.171875,2 c 0,0.25 0.203125,0.3125 0.296875,0.3125 0.15625,0 0.328125,-0.078125 0.328125,-0.3125 l -0.171875,-2 1.53125,1.109375 c 0.09375,0.0625 0.125,0.078125 0.203125,0.078125 0.171875,0 0.328125,-0.171875 0.328125,-0.328125 0,-0.1875 -0.109375,-0.25 -0.25,-0.3125 C 4.21875,-2.53125 4.203125,-2.53125 3.25,-2.96875 l 1.65625,-0.8125 c 0.1875,-0.09375 0.28125,-0.140625 0.28125,-0.3125 0,-0.1875 -0.15625,-0.34375 -0.328125,-0.34375 -0.078125,0 -0.109375,0 -0.40625,0.234375 L 3.125,-3.234375 Z m 0,0"
             id="path97"
             style="fill:#ff00ff;fill-opacity:1" />
        </g>
      </g>
    </g>
    <g
       inkscape:label=""
       transform="translate(46.84805,183.99972)"
       id="g1"
       style="fill:#0017ff;fill-opacity:1">
      <g
         fill="#000000"
         fill-opacity="1"
         id="g2"
         transform="matrix(0.352778,0,0,0.352778,-0.873963,-0.638969)"
         style="fill:#0017ff;fill-opacity:1">
        <g
           id="use1"
           transform="translate(1.993,9.4049997)"
           style="fill:#0017ff;fill-opacity:1">
          <path
             d="m 0.53125,2.984375 c -0.015625,0.078125 -0.046875,0.1875 -0.046875,0.28125 0,0.265625 0.203125,0.4375 0.46875,0.4375 0.25,0 0.5,-0.171875 0.59375,-0.421875 C 1.625,3.140625 2.09375,1.0625 2.65625,-1.046875 3,-0.1875 3.640625,0.171875 4.3125,0.171875 c 1.9375,0 4.140625,-2.40625 4.140625,-5.015625 0,-1.84375 -1.125,-2.75 -2.3125,-2.75 -1.515625,0 -3.34375,1.5625 -3.921875,3.859375 z m 3.75,-3.15625 c -1.171875,0 -1.453125,-1.359375 -1.453125,-1.5625 0,-0.109375 0.421875,-1.75 0.484375,-2 C 4.1875,-7.15625 5.875,-7.25 6.125,-7.25 c 0.78125,0 1.203125,0.703125 1.203125,1.71875 0,0.875 -0.453125,2.59375 -0.75,3.3125 -0.515625,1.1875 -1.40625,2.046875 -2.296875,2.046875 z m 0,0"
             id="path2"
             style="fill:#0017ff;fill-opacity:1" />
        </g>
      </g>
    </g>
  </g>
</svg>
