<?xml version="1.0" encoding="UTF-8" standalone="no"?>
<!-- Created with Inkscape (http://www.inkscape.org/) -->

<svg
   width="110.24458mm"
   height="22.509102mm"
   viewBox="0 0 110.24458 22.509102"
   version="1.1"
   id="svg1"
   sodipodi:docname="tape_machine_2.svg"
   inkscape:version="1.3.2 (091e20e, 2023-11-25)"
   xmlns:inkscape="http://www.inkscape.org/namespaces/inkscape"
   xmlns:sodipodi="http://sodipodi.sourceforge.net/DTD/sodipodi-0.dtd"
   xmlns="http://www.w3.org/2000/svg"
   xmlns:svg="http://www.w3.org/2000/svg">
  <sodipodi:namedview
     id="namedview1"
     pagecolor="#ffffff"
     bordercolor="#000000"
     borderopacity="0.25"
     inkscape:showpageshadow="2"
     inkscape:pageopacity="0.0"
     inkscape:pagecheckerboard="0"
     inkscape:deskcolor="#d1d1d1"
     inkscape:document-units="mm"
     inkscape:zoom="1.7501771"
     inkscape:cx="209.69307"
     inkscape:cy="42.567121"
     inkscape:window-width="1920"
     inkscape:window-height="1052"
     inkscape:window-x="0"
     inkscape:window-y="28"
     inkscape:window-maximized="0"
     inkscape:current-layer="svg1" />
  <defs
     id="defs1" />
  <rect
     style="fill:none;fill-opacity:1;stroke:#000000;stroke-width:1;stroke-opacity:1"
     id="rect75-4"
     width="102.17361"
     height="15.719018"
     x="3.4934289"
     y="4.1348224" />
  <circle
     id="path76-0"
     style="fill:#000000;stroke:#000000;stroke-width:0.264583"
     cx="14.680059"
     cy="19.711193"
     r="0.064864062" />
  <path
     style="fill:none;fill-opacity:1;stroke:#000000;stroke-width:0.997575;stroke-opacity:0.452247"
     d="m 47.537313,3.8318025 c 0,15.7710905 0,15.7710905 0,15.7710905"
     id="path77-5-6" />
  <path
     style="fill:none;fill-opacity:1;stroke:#000000;stroke-width:0.997575;stroke-opacity:0.452247"
     d="m 63.040143,4.4513325 c 0,15.7710905 0,15.7710905 0,15.7710905"
     id="path77-7-5-3" />
  <path
     style="fill:none;fill-opacity:1;stroke:#000000;stroke-width:0.997575;stroke-opacity:0.452247"
     d="m 16.531663,3.8591225 c 0,15.7710905 0,15.7710905 0,15.7710905"
     id="path77-5-4-0" />
  <path
     style="fill:none;fill-opacity:1;stroke:#000000;stroke-width:0.997575;stroke-opacity:0.452247"
     d="m 32.034493,4.4786525 c 0,15.7710905 0,15.7710905 0,15.7710905"
     id="path77-7-5-6-0" />
  <path
     style="fill:none;fill-opacity:1;stroke:#000000;stroke-width:0.997575;stroke-opacity:0.452247"
     d="m 78.537413,4.3330625 c 0,15.7710905 0,15.7710905 0,15.7710905"
     id="path77-5-4-5-5" />
  <path
     style="fill:none;fill-opacity:1;stroke:#000000;stroke-width:0.997575;stroke-opacity:0.452247"
     d="m 94.040243,4.4234225 c 0,15.7710905 0,15.7710905 0,15.7710905"
     id="path77-7-5-6-4-2" />
  <rect
     style="fill:#ffffff;fill-opacity:1;stroke:#ffffff;stroke-width:1;stroke-opacity:1"
     id="rect77-4-0"
     width="3.5627542"
     height="18.953854"
     x="105.4722"
     y="3.0552478" />
  <rect
     style="fill:#ffffff;fill-opacity:1;stroke:#ffffff;stroke-width:1;stroke-opacity:1"
     id="rect77-4-0-9"
     width="3.5627542"
     height="18.953854"
     x="0.5"
     y="2.0874925" />
  <path
     d="m 72.706706,12.953515 c 0,-0.534679 -0.0055,-1.444184 -0.374827,-2.144228 -0.325217,-0.61185 -0.837847,-0.8268243 -1.295356,-0.8268243 -0.418924,0 -0.953603,0.1929263 -1.284333,0.8213123 -0.347266,0.655946 -0.385851,1.466233 -0.385851,2.14974 0,0.496095 0.01102,1.256772 0.28112,1.923743 0.374827,0.898481 1.04731,1.019749 1.389064,1.019749 0.402387,0 1.014236,-0.165365 1.372527,-0.992188 0.264583,-0.606337 0.297656,-1.311893 0.297656,-1.951304 z m -1.670183,2.805688 c -0.556728,0 -0.89297,-0.479558 -1.014237,-1.146529 -0.09371,-0.51263 -0.09371,-1.267795 -0.09371,-1.758377 0,-0.672483 0,-1.229211 0.110243,-1.76389 0.170877,-0.744141 0.655947,-0.97014 0.997701,-0.97014 0.35829,0 0.821311,0.237023 0.986676,0.953603 0.115755,0.496094 0.126779,1.085895 0.126779,1.780427 0,0.573264 0,1.267796 -0.104731,1.785938 -0.187413,0.953603 -0.700044,1.118968 -1.008724,1.118968 z m 0,0"
     id="path79-5"
     style="fill:#000000;fill-opacity:1;stroke-width:0.352778" />
  <path
     d="m 40.16192,9.9831682 c 0,-0.1874133 -0.01102,-0.1929254 -0.132292,-0.1929254 -0.341754,0.4079002 -0.854384,0.5401922 -1.344966,0.5567282 -0.02756,0 -0.07166,0 -0.07717,0.01653 -0.01102,0.02205 -0.01102,0.03859 -0.01102,0.220486 0.270095,0 0.727604,-0.05512 1.07487,-0.264584 v 4.608163 c 0,0.308681 -0.01654,0.413412 -0.771702,0.413412 h -0.259071 v 0.226 c 0.418924,-0.01102 0.854384,-0.01654 1.273308,-0.01654 0.424436,0 0.859896,0.0055 1.27882,0.01654 V 15.34098 h -0.264583 c -0.749654,0 -0.76619,-0.09922 -0.76619,-0.413412 z m 0,0"
     id="path81-6"
     style="fill:#000000;fill-opacity:1;stroke-width:0.352778" />
  <path
     d="m 55.29803,9.8225282 c 0,-0.1874133 -0.01102,-0.1929255 -0.132292,-0.1929255 -0.341754,0.4079003 -0.854384,0.5401923 -1.344966,0.5567283 -0.02756,0 -0.07166,0 -0.07717,0.01654 -0.01102,0.02205 -0.01102,0.03858 -0.01102,0.220486 0.270095,0 0.727604,-0.05512 1.07487,-0.264584 v 4.608163 c 0,0.308681 -0.01654,0.413412 -0.771702,0.413412 h -0.259071 v 0.226 c 0.418924,-0.01102 0.854384,-0.01654 1.273308,-0.01654 0.424436,0 0.859896,0.0055 1.27882,0.01654 V 15.18035 h -0.264583 c -0.749654,0 -0.76619,-0.09922 -0.76619,-0.413412 z m 0,0"
     id="path81-6-6"
     style="fill:#000000;fill-opacity:1;stroke-width:0.352778" />
  <rect
     style="fill:none;fill-opacity:1;stroke:#ff00f1;stroke-width:1;stroke-opacity:1"
     id="rect74-1"
     width="19.842037"
     height="19.713194"
     x="30.128119"
     y="1.9306749" />
  <path
     class="real"
     d="M 40.136407,6.3605832 43.509844,0 h -6.746875 z"
     style="fill:#bd10e0;fill-opacity:1;stroke:none;stroke-width:0.264583px;stroke-opacity:1"
     id="path6-0-2" />
  <path
     d="m 1.725297,11.995408 c 0,-0.253559 -0.2149741,-0.468533 -0.4685333,-0.468533 -0.2535592,0 -0.46302115,0.214974 -0.46302115,0.468533 0,0.248047 0.20946195,0.463021 0.46302115,0.463021 0.2535592,0 0.4685333,-0.214974 0.4685333,-0.463021 z m 0,0"
     id="path84-0"
     style="fill:#000000;fill-opacity:1;stroke-width:0.352778" />
  <path
     d="m 5.6147809,11.995408 c 0,-0.253559 -0.2149741,-0.468533 -0.4685333,-0.468533 -0.2535592,0 -0.4630211,0.214974 -0.4630211,0.468533 0,0.248047 0.2094619,0.463021 0.4630211,0.463021 0.2535592,0 0.4685333,-0.214974 0.4685333,-0.463021 z m 0,0"
     id="path86-7"
     style="fill:#000000;fill-opacity:1;stroke-width:0.352778" />
  <path
     d="m 9.495521,11.995408 c 0,-0.253559 -0.2149741,-0.468533 -0.4685333,-0.468533 -0.2535592,0 -0.4630212,0.214974 -0.4630212,0.468533 0,0.248047 0.209462,0.463021 0.4630212,0.463021 0.2535592,0 0.4685333,-0.214974 0.4685333,-0.463021 z m 0,0"
     id="path88-5"
     style="fill:#000000;fill-opacity:1;stroke-width:0.352778" />
  <g
     id="g1"
     transform="translate(0.79374275)">
    <path
       d="m 101.6806,11.973255 c 0,-0.253559 -0.21497,-0.468533 -0.46853,-0.468533 -0.25356,0 -0.46302,0.214974 -0.46302,0.468533 0,0.248047 0.20946,0.463021 0.46302,0.463021 0.25356,0 0.46853,-0.214974 0.46853,-0.463021 z m 0,0"
       id="path84-9-3"
       style="fill:#000000;fill-opacity:1;stroke-width:0.352778" />
    <path
       d="m 105.57009,11.973255 c 0,-0.253559 -0.21498,-0.468533 -0.46854,-0.468533 -0.25355,0 -0.46302,0.214974 -0.46302,0.468533 0,0.248047 0.20947,0.463021 0.46302,0.463021 0.25356,0 0.46854,-0.214974 0.46854,-0.463021 z m 0,0"
       id="path86-6-1"
       style="fill:#000000;fill-opacity:1;stroke-width:0.352778" />
    <path
       d="m 109.45083,11.973255 c 0,-0.253559 -0.21498,-0.468533 -0.46854,-0.468533 -0.25355,0 -0.46302,0.214974 -0.46302,0.468533 0,0.248047 0.20947,0.463021 0.46302,0.463021 0.25356,0 0.46854,-0.214974 0.46854,-0.463021 z m 0,0"
       id="path88-7-1"
       style="fill:#000000;fill-opacity:1;stroke-width:0.352778" />
  </g>
</svg>
