<?xml version="1.0" encoding="UTF-8" standalone="no"?>
<!-- Created with Inkscape (http://www.inkscape.org/) -->

<svg
   width="108.09598mm"
   height="67.407204mm"
   viewBox="0 0 108.09598 67.407204"
   version="1.1"
   id="svg1"
   sodipodi:docname="x_clr.svg"
   inkscape:version="1.3.2 (091e20e, 2023-11-25)"
   xmlns:inkscape="http://www.inkscape.org/namespaces/inkscape"
   xmlns:sodipodi="http://sodipodi.sourceforge.net/DTD/sodipodi-0.dtd"
   xmlns="http://www.w3.org/2000/svg"
   xmlns:svg="http://www.w3.org/2000/svg">
  <sodipodi:namedview
     id="namedview1"
     pagecolor="#ffffff"
     bordercolor="#000000"
     borderopacity="0.25"
     inkscape:showpageshadow="2"
     inkscape:pageopacity="0.0"
     inkscape:pagecheckerboard="0"
     inkscape:deskcolor="#d1d1d1"
     inkscape:document-units="mm"
     inkscape:zoom="1.9093895"
     inkscape:cx="185.9233"
     inkscape:cy="119.14803"
     inkscape:window-width="1472"
     inkscape:window-height="892"
     inkscape:window-x="0"
     inkscape:window-y="64"
     inkscape:window-maximized="0"
     inkscape:current-layer="layer1" />
  <defs
     id="defs1">
    <marker
       style="overflow:visible"
       id="ConcaveTriangle"
       refX="0"
       refY="0"
       orient="auto-start-reverse"
       markerWidth="1"
       markerHeight="1"
       viewBox="0 0 1 1"
       preserveAspectRatio="xMidYMid">
      <path
         transform="scale(0.7)"
         d="M -2,-4 9,0 -2,4 c 2,-2.33 2,-5.66 0,-8 z"
         style="fill:context-stroke;fill-rule:evenodd;stroke:none"
         id="path103" />
    </marker>
    <marker
       style="overflow:visible"
       id="ConcaveTriangle-6"
       refX="0"
       refY="0"
       orient="auto-start-reverse"
       markerWidth="1"
       markerHeight="1"
       viewBox="0 0 1 1"
       preserveAspectRatio="xMidYMid">
      <path
         transform="scale(0.7)"
         d="M -2,-4 9,0 -2,4 c 2,-2.33 2,-5.66 0,-8 z"
         style="fill:context-stroke;fill-rule:evenodd;stroke:none"
         id="path103-0" />
    </marker>
    <marker
       style="overflow:visible"
       id="ConcaveTriangle-6-2"
       refX="0"
       refY="0"
       orient="auto-start-reverse"
       markerWidth="1"
       markerHeight="1"
       viewBox="0 0 1 1"
       preserveAspectRatio="xMidYMid">
      <path
         transform="scale(0.7)"
         d="M -2,-4 9,0 -2,4 c 2,-2.33 2,-5.66 0,-8 z"
         style="fill:context-stroke;fill-rule:evenodd;stroke:none"
         id="path103-0-6" />
    </marker>
    <marker
       style="overflow:visible"
       id="ConcaveTriangle-4"
       refX="0"
       refY="0"
       orient="auto-start-reverse"
       markerWidth="1"
       markerHeight="1"
       viewBox="0 0 1 1"
       preserveAspectRatio="xMidYMid">
      <path
         transform="scale(0.7)"
         d="M -2,-4 9,0 -2,4 c 2,-2.33 2,-5.66 0,-8 z"
         style="fill:context-stroke;fill-rule:evenodd;stroke:none"
         id="path103-5" />
    </marker>
  </defs>
  <g
     id="layer1"
     transform="translate(-32.4099, -28.3314)">
    <path
       style="fill:none;fill-opacity:1;stroke:#020002;stroke-width:1;stroke-opacity:1;marker-end:url(#ConcaveTriangle-6)"
       d="m 41.113055,54.324832 c 18.77332,14.976776 3.767288,29.721502 1.355949,13.059464"
       id="path102-8" />
    <path
       style="fill:none;fill-opacity:1;stroke:#020002;stroke-width:1;stroke-opacity:1;marker-end:url(#ConcaveTriangle-6-2)"
       d="m 100.20116,74.812637 c 18.77332,14.976776 3.76729,29.721503 1.35595,13.059464"
       id="path102-8-8" />
    <path
       style="fill:none;fill-opacity:1;stroke:#020002;stroke-width:1;stroke-opacity:1;marker-end:url(#ConcaveTriangle)"
       d="m 41.236806,53.442899 c 16.53891,-0.0701 35.895907,2.279407 49.154272,13.195778"
       id="path102" />
    <path
       style="fill:none;fill-opacity:1;stroke:#020002;stroke-width:1;stroke-opacity:1;marker-end:url(#ConcaveTriangle-4)"
       d="m 100.15232,75.249851 c 5.81734,-8.482408 12.4734,-18.009101 19.29883,-27.051344"
       id="path102-9" />
    <ellipse
       style="fill:#ffffff;fill-opacity:1;stroke:#020002;stroke-width:0.898119;stroke-opacity:1"
       id="path138"
       cx="128.95442"
       cy="36.501484"
       rx="11.102405"
       ry="7.7209859" />
    <ellipse
       style="fill:#ffffff;fill-opacity:1;stroke:#020002;stroke-width:1;stroke-dasharray:none;stroke-opacity:1"
       id="path138-0"
       cx="99.923759"
       cy="75.146294"
       rx="6.1402845"
       ry="6.1402841" />
    <ellipse
       style="fill:#ffffff;fill-opacity:1;stroke:#020002;stroke-width:0.878823;stroke-opacity:1"
       id="path138-7"
       cx="43.466534"
       cy="53.184471"
       rx="10.61721"
       ry="7.7306337" />
    <g
       transform="translate(52.948105,64.246961)"
       id="g111">
      <g
         fill="#000000"
         fill-opacity="1"
         id="g107"
         transform="matrix(0.352778,0,0,0.352778,-1.03382,-0.707275)">
        <g
           id="g106"
           transform="translate(1.993,20.583)">
          <path
             d="m 10.40625,-7.953125 c 0,-1.515625 -0.01563,-4.09375 -1.0625,-6.078125 -0.921875,-1.734375 -2.375,-2.34375 -3.671875,-2.34375 -1.1875,0 -2.703125,0.546875 -3.640625,2.328125 -0.984375,1.859375 -1.09375,4.15625 -1.09375,6.09375 0,1.40625 0.03125,3.5625 0.796875,5.453125 1.0625,2.546875 2.96875,2.890625 3.9375,2.890625 1.140625,0 2.875,-0.46875 3.890625,-2.8125 0.75,-1.71875 0.84375,-3.71875 0.84375,-5.53125 z M 5.671875,0 C 4.09375,0 3.140625,-1.359375 2.796875,-3.25 2.53125,-4.703125 2.53125,-6.84375 2.53125,-8.234375 c 0,-1.90625 0,-3.484375 0.3125,-5 0.484375,-2.109375 1.859375,-2.75 2.828125,-2.75 1.015625,0 2.328125,0.671875 2.796875,2.703125 0.328125,1.40625 0.359375,3.078125 0.359375,5.046875 0,1.625 0,3.59375 -0.296875,5.0625 C 8,-0.46875 6.546875,0 5.671875,0 Z m 0,0"
             id="path6" />
        </g>
      </g>
      <g
         fill="#000000"
         fill-opacity="1"
         id="g109"
         transform="matrix(0.352778,0,0,0.352778,-1.03382,-0.707275)">
        <g
           id="g108"
           transform="translate(20.246,20.583)">
          <path
             d="m 3.9375,-17.6875 c 0,-0.453125 0,-0.890625 -0.5,-0.890625 -0.484375,0 -0.484375,0.4375 -0.484375,0.890625 V 5.296875 c 0,0.453125 0,0.890625 0.484375,0.890625 0.5,0 0.5,-0.4375 0.5,-0.890625 z m 0,0"
             id="path107" />
        </g>
      </g>
      <g
         fill="#000000"
         fill-opacity="1"
         id="g6"
         transform="matrix(0.352778,0,0,0.352778,-1.03382,-0.707275)">
        <g
           id="g110"
           transform="translate(34.015999,20.583)">
          <path
             d="m 2.5625,-6.78125 c -0.421875,0.203125 -0.5,0.375 -0.5,0.578125 0,0.203125 0.109375,0.375 0.5,0.546875 L 16.34375,0.828125 C 16.65625,1 16.71875,1 16.78125,1 c 0.5,0 0.5,-0.453125 0.5,-0.875 v -12.671875 c 0,-0.421875 0,-0.875 -0.5,-0.875 -0.125,0 -0.34375,0.09375 -0.4375,0.140625 z m 1.171875,0.578125 12.546875,-5.953125 v 11.875 z m 0,0"
             id="path109" />
        </g>
      </g>
    </g>
    <g
       transform="translate(53.278,73.648953)"
       id="g118">
      <g
         fill="#000000"
         fill-opacity="1"
         id="g113"
         transform="matrix(0.352778,0,0,0.352778,-1.46376,-0.707275)">
        <g
           id="g112"
           transform="translate(1.993,20.583)">
          <path
             d="m 6.59375,-15.828125 c 0,-0.53125 -0.03125,-0.546875 -0.375,-0.546875 -0.96875,1.15625 -2.421875,1.53125 -3.8125,1.578125 -0.078125,0 -0.203125,0 -0.21875,0.04687 -0.03125,0.0625 -0.03125,0.109375 -0.03125,0.625 0.765625,0 2.0625,-0.15625 3.046875,-0.75 v 13.0625 c 0,0.875 -0.046875,1.171875 -2.1875,1.171875 H 2.28125 V 0 c 1.1875,-0.03125 2.421875,-0.046875 3.609375,-0.046875 1.203125,0 2.4375,0.015625 3.625,0.046875 v -0.640625 h -0.75 c -2.125,0 -2.171875,-0.28125 -2.171875,-1.171875 z m 0,0"
             id="path111" />
        </g>
      </g>
      <g
         fill="#000000"
         fill-opacity="1"
         id="g115"
         transform="matrix(0.352778,0,0,0.352778,-1.46376,-0.707275)">
        <g
           id="g114"
           transform="translate(20.246,20.583)">
          <path
             d="m 3.9375,-17.6875 c 0,-0.453125 0,-0.890625 -0.5,-0.890625 -0.484375,0 -0.484375,0.4375 -0.484375,0.890625 V 5.296875 c 0,0.453125 0,0.890625 0.484375,0.890625 0.5,0 0.5,-0.4375 0.5,-0.890625 z m 0,0"
             id="path113" />
        </g>
      </g>
      <g
         fill="#000000"
         fill-opacity="1"
         id="g117"
         transform="matrix(0.352778,0,0,0.352778,-1.46376,-0.707275)">
        <g
           id="g116"
           transform="translate(34.015999,20.583)">
          <path
             d="m 2.5625,-6.78125 c -0.421875,0.203125 -0.5,0.375 -0.5,0.578125 0,0.203125 0.109375,0.375 0.5,0.546875 L 16.34375,0.828125 C 16.65625,1 16.71875,1 16.78125,1 c 0.5,0 0.5,-0.453125 0.5,-0.875 v -12.671875 c 0,-0.421875 0,-0.875 -0.5,-0.875 -0.125,0 -0.34375,0.09375 -0.4375,0.140625 z m 1.171875,0.578125 12.546875,-5.953125 v 11.875 z m 0,0"
             id="path115" />
        </g>
      </g>
    </g>
    <g
       transform="translate(112.32908,76.288058)"
       id="g134">
      <g
         fill="#000000"
         fill-opacity="1"
         id="g124"
         transform="matrix(0.352778,0,0,0.352778,-1.03382,-0.707275)">
        <g
           id="g123"
           transform="translate(1.993,20.583)">
          <path
             d="m 10.40625,-7.953125 c 0,-1.515625 -0.01563,-4.09375 -1.0625,-6.078125 -0.921875,-1.734375 -2.375,-2.34375 -3.671875,-2.34375 -1.1875,0 -2.703125,0.546875 -3.640625,2.328125 -0.984375,1.859375 -1.09375,4.15625 -1.09375,6.09375 0,1.40625 0.03125,3.5625 0.796875,5.453125 1.0625,2.546875 2.96875,2.890625 3.9375,2.890625 1.140625,0 2.875,-0.46875 3.890625,-2.8125 0.75,-1.71875 0.84375,-3.71875 0.84375,-5.53125 z M 5.671875,0 C 4.09375,0 3.140625,-1.359375 2.796875,-3.25 2.53125,-4.703125 2.53125,-6.84375 2.53125,-8.234375 c 0,-1.90625 0,-3.484375 0.3125,-5 0.484375,-2.109375 1.859375,-2.75 2.828125,-2.75 1.015625,0 2.328125,0.671875 2.796875,2.703125 0.328125,1.40625 0.359375,3.078125 0.359375,5.046875 0,1.625 0,3.59375 -0.296875,5.0625 C 8,-0.46875 6.546875,0 5.671875,0 Z m 0,0"
             id="path122" />
        </g>
      </g>
      <g
         fill="#000000"
         fill-opacity="1"
         id="g127"
         transform="matrix(0.352778,0,0,0.352778,-1.03382,-0.707275)">
        <g
           id="g125"
           transform="translate(20.246,20.583)">
          <path
             d="m 3.9375,-17.6875 c 0,-0.453125 0,-0.890625 -0.5,-0.890625 -0.484375,0 -0.484375,0.4375 -0.484375,0.890625 V 5.296875 c 0,0.453125 0,0.890625 0.484375,0.890625 0.5,0 0.5,-0.4375 0.5,-0.890625 z m 0,0"
             id="path124" />
        </g>
        <g
           id="g126"
           transform="translate(27.131857,20.583)">
          <path
             d="M 15.609375,-16.78125 C 15.8125,-17.125 15.8125,-17.171875 15.8125,-17.25 c 0,-0.171875 -0.15625,-0.5 -0.5,-0.5 -0.296875,0 -0.375,0.15625 -0.546875,0.5 L 3.640625,4.390625 C 3.4375,4.734375 3.4375,4.78125 3.4375,4.859375 c 0,0.203125 0.1875,0.5 0.5,0.5 0.296875,0 0.375,-0.15625 0.546875,-0.5 z m 0,0"
             id="path125" />
        </g>
      </g>
      <g
         fill="#000000"
         fill-opacity="1"
         id="g129"
         transform="matrix(0.352778,0,0,0.352778,-1.03382,-0.707275)">
        <g
           id="g128"
           transform="translate(29.883224,20.583)">
          <path
             d="m 6.6875,-16.3125 c 0,-0.4375 0,-0.890625 -0.5,-0.890625 -0.484375,0 -0.484375,0.453125 -0.484375,0.890625 V 1.359375 C 5.109375,0.421875 4.40625,-0.265625 3.796875,-0.75 2.28125,-1.890625 0.765625,-2.125 0.71875,-2.125 c -0.296875,0 -0.296875,0.265625 -0.296875,0.46875 0,0.390625 0.03125,0.421875 0.5625,0.59375 1.6875,0.46875 2.65625,1.359375 3.234375,1.984375 1.265625,1.359375 1.5625,2.84375 1.703125,3.609375 0.03125,0.125 0.09375,0.25 0.265625,0.25 0.234375,0 0.25,-0.171875 0.3125,-0.390625 0.53125,-2.796875 2.328125,-4.734375 5.046875,-5.5 0.375,-0.125 0.421875,-0.125 0.421875,-0.546875 0,-0.203125 0,-0.46875 -0.296875,-0.46875 -0.07813,0 -1.53125,0.265625 -2.953125,1.28125 -0.8125,0.625 -1.484375,1.359375 -2.03125,2.203125 z m 0,0"
             id="path127" />
        </g>
      </g>
      <g
         fill="#000000"
         fill-opacity="1"
         id="g131"
         transform="matrix(0.352778,0,0,0.352778,-1.03382,-0.707275)">
        <g
           id="g130"
           transform="translate(42.278999,20.583)">
          <path
             d="m 4.5625,-1.1875 c 0,-0.71875 -0.59375,-1.21875 -1.1875,-1.21875 -0.71875,0 -1.21875,0.59375 -1.21875,1.1875 C 2.15625,-0.5 2.75,0 3.34375,0 4.0625,0 4.5625,-0.59375 4.5625,-1.1875 Z m 0,0"
             id="path129" />
        </g>
      </g>
      <g
         fill="#000000"
         fill-opacity="1"
         id="g133"
         transform="matrix(0.352778,0,0,0.352778,-1.03382,-0.707275)">
        <g
           id="g132"
           transform="translate(49.02,20.583)">
          <path
             d="m 16.78125,-5.65625 c 0.40625,-0.171875 0.5,-0.34375 0.5,-0.546875 0,-0.203125 -0.07813,-0.375 -0.5,-0.578125 L 3.015625,-13.25 c -0.328125,-0.171875 -0.375,-0.171875 -0.421875,-0.171875 -0.53125,0 -0.53125,0.453125 -0.53125,0.890625 V 0.125 c 0,0.421875 0,0.875 0.5,0.875 0.078125,0 0.125,0 0.453125,-0.171875 z M 15.609375,-6.21875 3.0625,-0.28125 v -11.875 z m 0,0"
             id="path131" />
        </g>
      </g>
    </g>
    <g
       transform="translate(112.65897,86.184891)"
       id="g138">
      <g
         fill="#000000"
         fill-opacity="1"
         id="g136"
         transform="matrix(0.352778,0,0,0.352778,-1.46376,-0.707275)">
        <g
           id="g135"
           transform="translate(1.993,20.583)">
          <path
             d="m 6.59375,-15.828125 c 0,-0.53125 -0.03125,-0.546875 -0.375,-0.546875 -0.96875,1.15625 -2.421875,1.53125 -3.8125,1.578125 -0.078125,0 -0.203125,0 -0.21875,0.04687 -0.03125,0.0625 -0.03125,0.109375 -0.03125,0.625 0.765625,0 2.0625,-0.15625 3.046875,-0.75 v 13.0625 c 0,0.875 -0.046875,1.171875 -2.1875,1.171875 H 2.28125 V 0 c 1.1875,-0.03125 2.421875,-0.046875 3.609375,-0.046875 1.203125,0 2.4375,0.015625 3.625,0.046875 v -0.640625 h -0.75 c -2.125,0 -2.171875,-0.28125 -2.171875,-1.171875 z m 0,0"
             id="path11" />
        </g>
      </g>
      <g
         fill="#000000"
         fill-opacity="1"
         id="g8"
         transform="matrix(0.352778,0,0,0.352778,-1.46376,-0.707275)">
        <g
           id="g137"
           transform="translate(20.246,20.583)">
          <path
             d="m 3.9375,-17.6875 c 0,-0.453125 0,-0.890625 -0.5,-0.890625 -0.484375,0 -0.484375,0.4375 -0.484375,0.890625 V 5.296875 c 0,0.453125 0,0.890625 0.484375,0.890625 0.5,0 0.5,-0.4375 0.5,-0.890625 z m 0,0"
             id="path12" />
        </g>
        <g
           id="use8"
           transform="translate(27.131857,20.583)">
          <path
             d="M 15.609375,-16.78125 C 15.8125,-17.125 15.8125,-17.171875 15.8125,-17.25 c 0,-0.171875 -0.15625,-0.5 -0.5,-0.5 -0.296875,0 -0.375,0.15625 -0.546875,0.5 L 3.640625,4.390625 C 3.4375,4.734375 3.4375,4.78125 3.4375,4.859375 c 0,0.203125 0.1875,0.5 0.5,0.5 0.296875,0 0.375,-0.15625 0.546875,-0.5 z m 0,0"
             id="path13" />
        </g>
      </g>
      <g
         fill="#000000"
         fill-opacity="1"
         id="g9"
         transform="matrix(0.352778,0,0,0.352778,-1.46376,-0.707275)">
        <g
           id="use9"
           transform="translate(29.883224,20.583)">
          <path
             d="m 6.6875,-16.3125 c 0,-0.4375 0,-0.890625 -0.5,-0.890625 -0.484375,0 -0.484375,0.453125 -0.484375,0.890625 V 1.359375 C 5.109375,0.421875 4.40625,-0.265625 3.796875,-0.75 2.28125,-1.890625 0.765625,-2.125 0.71875,-2.125 c -0.296875,0 -0.296875,0.265625 -0.296875,0.46875 0,0.390625 0.03125,0.421875 0.5625,0.59375 1.6875,0.46875 2.65625,1.359375 3.234375,1.984375 1.265625,1.359375 1.5625,2.84375 1.703125,3.609375 0.03125,0.125 0.09375,0.25 0.265625,0.25 0.234375,0 0.25,-0.171875 0.3125,-0.390625 0.53125,-2.796875 2.328125,-4.734375 5.046875,-5.5 0.375,-0.125 0.421875,-0.125 0.421875,-0.546875 0,-0.203125 0,-0.46875 -0.296875,-0.46875 -0.07813,0 -1.53125,0.265625 -2.953125,1.28125 -0.8125,0.625 -1.484375,1.359375 -2.03125,2.203125 z m 0,0"
             id="path14" />
        </g>
      </g>
      <g
         fill="#000000"
         fill-opacity="1"
         id="g10"
         transform="matrix(0.352778,0,0,0.352778,-1.46376,-0.707275)">
        <g
           id="use10"
           transform="translate(42.278999,20.583)">
          <path
             d="m 4.5625,-1.1875 c 0,-0.71875 -0.59375,-1.21875 -1.1875,-1.21875 -0.71875,0 -1.21875,0.59375 -1.21875,1.1875 C 2.15625,-0.5 2.75,0 3.34375,0 4.0625,0 4.5625,-0.59375 4.5625,-1.1875 Z m 0,0"
             id="path15" />
        </g>
      </g>
      <g
         fill="#000000"
         fill-opacity="1"
         id="g11"
         transform="matrix(0.352778,0,0,0.352778,-1.46376,-0.707275)">
        <g
           id="use11"
           transform="translate(49.02,20.583)">
          <path
             d="m 16.78125,-5.65625 c 0.40625,-0.171875 0.5,-0.34375 0.5,-0.546875 0,-0.203125 -0.07813,-0.375 -0.5,-0.578125 L 3.015625,-13.25 c -0.328125,-0.171875 -0.375,-0.171875 -0.421875,-0.171875 -0.53125,0 -0.53125,0.453125 -0.53125,0.890625 V 0.125 c 0,0.421875 0,0.875 0.5,0.875 0.078125,0 0.125,0 0.453125,-0.171875 z M 15.609375,-6.21875 3.0625,-0.28125 v -11.875 z m 0,0"
             id="path16" />
        </g>
      </g>
    </g>
    <g
       transform="translate(118.26714,52.205769)"
       id="g144">
      <path
         fill="none"
         stroke-width="0.398"
         stroke-linecap="butt"
         stroke-linejoin="miter"
         stroke="#000000"
         stroke-opacity="1"
         stroke-miterlimit="10"
         d="M 0,18.377937 H 6.8242192"
         id="path139"
         transform="scale(0.352778)" />
      <g
         fill="#000000"
         fill-opacity="1"
         id="g141"
         transform="matrix(0.352778,0,0,0.352778,-1.18373,-0.707275)">
        <g
           id="g140"
           transform="translate(17.063,20.583)">
          <path
             d="m 3.9375,-17.6875 c 0,-0.453125 0,-0.890625 -0.5,-0.890625 -0.484375,0 -0.484375,0.4375 -0.484375,0.890625 V 5.296875 c 0,0.453125 0,0.890625 0.484375,0.890625 0.5,0 0.5,-0.4375 0.5,-0.890625 z m 0,0"
             id="path140" />
        </g>
      </g>
      <g
         fill="#000000"
         fill-opacity="1"
         id="g143"
         transform="matrix(0.352778,0,0,0.352778,-1.18373,-0.707275)">
        <g
           id="g142"
           transform="translate(30.833,20.583)">
          <path
             d="m 2.5625,-6.78125 c -0.421875,0.203125 -0.5,0.375 -0.5,0.578125 0,0.203125 0.109375,0.375 0.5,0.546875 L 16.34375,0.828125 C 16.65625,1 16.71875,1 16.78125,1 c 0.5,0 0.5,-0.453125 0.5,-0.875 v -12.671875 c 0,-0.421875 0,-0.875 -0.5,-0.875 -0.125,0 -0.34375,0.09375 -0.4375,0.140625 z m 1.171875,0.578125 12.546875,-5.953125 v 11.875 z m 0,0"
             id="path141" />
        </g>
      </g>
    </g>
    <g
       transform="translate(122.7894,34.095978)"
       id="g148">
      <g
         fill="#000000"
         fill-opacity="1"
         id="g145"
         transform="matrix(0.352778,0,0,0.352778,-0.945621,-0.614583)">
        <g
           id="use4"
           transform="translate(1.993,12.664)">
          <path
             d="m 11.75,-10.109375 c -0.796875,0.140625 -1.09375,0.734375 -1.09375,1.21875 0,0.59375 0.46875,0.78125 0.8125,0.78125 0.75,0 1.265625,-0.640625 1.265625,-1.3125 0,-1.03125 -1.1875,-1.5 -2.234375,-1.5 -1.5,0 -2.34375,1.484375 -2.5625,1.953125 -0.578125,-1.859375 -2.109375,-1.953125 -2.5625,-1.953125 -2.53125,0 -3.859375,3.234375 -3.859375,3.78125 0,0.109375 0.09375,0.234375 0.265625,0.234375 0.203125,0 0.25,-0.15625 0.296875,-0.25 0.84375,-2.75 2.5,-3.28125 3.21875,-3.28125 1.125,0 1.34375,1.046875 1.34375,1.640625 C 6.640625,-8.25 6.5,-7.6875 6.1875,-6.5 l -0.828125,3.40625 c -0.375,1.484375 -1.09375,2.84375 -2.40625,2.84375 -0.125,0 -0.75,0 -1.265625,-0.3125 0.890625,-0.1875 1.09375,-0.921875 1.09375,-1.21875 0,-0.5 -0.375,-0.796875 -0.84375,-0.796875 -0.59375,0 -1.25,0.515625 -1.25,1.3125 0,1.046875 1.171875,1.515625 2.234375,1.515625 1.1875,0 2.03125,-0.9375 2.5625,-1.953125 C 5.875,-0.25 7.109375,0.25 8.03125,0.25 c 2.53125,0 3.859375,-3.25 3.859375,-3.796875 0,-0.125 -0.09375,-0.21875 -0.25,-0.21875 -0.21875,0 -0.234375,0.125 -0.3125,0.328125 -0.671875,2.171875 -2.109375,3.1875 -3.21875,3.1875 -0.875,0 -1.34375,-0.640625 -1.34375,-1.65625 0,-0.546875 0.09375,-0.9375 0.5,-2.578125 L 8.125,-7.859375 C 8.5,-9.34375 9.34375,-10.4375 10.484375,-10.4375 c 0.04687,0 0.734375,0 1.265625,0.328125 z m 0,0"
             id="path144" />
        </g>
      </g>
      <g
         fill="#000000"
         fill-opacity="1"
         id="g147"
         transform="matrix(0.352778,0,0,0.352778,-0.945621,-0.614583)">
        <g
           id="use5"
           transform="translate(15.785,16.382)">
          <path
             d="M 7.203125,-5.046875 C 7.203125,-6.734375 6.40625,-7.53125 5,-7.53125 c -1.171875,0 -1.9375,0.65625 -2.234375,0.984375 V -9.8125 c 0,-0.53125 -0.09375,-0.703125 -0.6875,-0.703125 h -1.125 c -0.25,0 -0.6875,0 -0.6875,0.5 0,0.5 0.4375,0.5 0.6875,0.5 H 1.65625 V -1 H 0.953125 c -0.25,0 -0.6875,0 -0.6875,0.5 0,0.5 0.4375,0.5 0.6875,0.5 h 2.53125 c 0.234375,0 0.6875,0 0.6875,-0.5 0,-0.5 -0.453125,-0.5 -0.6875,-0.5 h -0.71875 v -3.109375 c 0,-1.671875 1.171875,-2.421875 2.109375,-2.421875 1,0 1.203125,0.578125 1.203125,1.5625 V -1 H 5.375 C 5.125,-1 4.6875,-1 4.6875,-0.5 4.6875,0 5.125,0 5.375,0 h 2.53125 c 0.234375,0 0.6875,0 0.6875,-0.5 0,-0.5 -0.453125,-0.5 -0.6875,-0.5 H 7.203125 Z m 0,0"
             id="path145" />
        </g>
        <g
           id="use6"
           transform="translate(24.644045,16.382)">
          <path
             d="m 5,-9.8125 c 0,-0.53125 -0.109375,-0.703125 -0.6875,-0.703125 H 1.78125 c -0.25,0 -0.703125,0 -0.703125,0.5 0,0.5 0.453125,0.5 0.703125,0.5 H 3.875 V -1 H 1.78125 c -0.25,0 -0.703125,0 -0.703125,0.5 0,0.5 0.453125,0.5 0.703125,0.5 h 5.3125 c 0.234375,0 0.6875,0 0.6875,-0.5 0,-0.5 -0.453125,-0.5 -0.6875,-0.5 H 5 Z m 0,0"
             id="path146" />
        </g>
        <g
           id="use7"
           transform="translate(33.50309,16.382)">
          <path
             d="m 3.71875,-6.421875 h 2.796875 c 0.234375,0 0.6875,0 0.6875,-0.5 0,-0.5 -0.453125,-0.5 -0.6875,-0.5 H 3.71875 v -1.40625 c 0,-0.3125 0,-0.71875 -0.546875,-0.71875 -0.578125,0 -0.578125,0.40625 -0.578125,0.71875 v 1.40625 H 1.140625 c -0.25,0 -0.703125,0 -0.703125,0.5 0,0.5 0.4375,0.5 0.6875,0.5 h 1.46875 v 4.34375 c 0,1.59375 1.109375,2.1875 2.34375,2.1875 0.9375,0 2.640625,-0.46875 2.640625,-2.234375 0,-0.34375 0,-0.71875 -0.5625,-0.71875 -0.5625,0 -0.5625,0.375 -0.5625,0.75 -0.015625,1.03125 -1,1.203125 -1.390625,1.203125 -1.34375,0 -1.34375,-0.859375 -1.34375,-1.28125 z m 0,0"
             id="path147" />
        </g>
      </g>
    </g>
    <g
       transform="translate(35.958501,50.556375)"
       id="g155">
      <g
         fill="#000000"
         fill-opacity="1"
         id="g150"
         transform="matrix(0.352778,0,0,0.352778,-0.945621,-0.614583)">
        <g
           id="g149"
           transform="translate(1.993,12.664)">
          <path
             d="m 11.75,-10.109375 c -0.796875,0.140625 -1.09375,0.734375 -1.09375,1.21875 0,0.59375 0.46875,0.78125 0.8125,0.78125 0.75,0 1.265625,-0.640625 1.265625,-1.3125 0,-1.03125 -1.1875,-1.5 -2.234375,-1.5 -1.5,0 -2.34375,1.484375 -2.5625,1.953125 -0.578125,-1.859375 -2.109375,-1.953125 -2.5625,-1.953125 -2.53125,0 -3.859375,3.234375 -3.859375,3.78125 0,0.109375 0.09375,0.234375 0.265625,0.234375 0.203125,0 0.25,-0.15625 0.296875,-0.25 0.84375,-2.75 2.5,-3.28125 3.21875,-3.28125 1.125,0 1.34375,1.046875 1.34375,1.640625 C 6.640625,-8.25 6.5,-7.6875 6.1875,-6.5 l -0.828125,3.40625 c -0.375,1.484375 -1.09375,2.84375 -2.40625,2.84375 -0.125,0 -0.75,0 -1.265625,-0.3125 0.890625,-0.1875 1.09375,-0.921875 1.09375,-1.21875 0,-0.5 -0.375,-0.796875 -0.84375,-0.796875 -0.59375,0 -1.25,0.515625 -1.25,1.3125 0,1.046875 1.171875,1.515625 2.234375,1.515625 1.1875,0 2.03125,-0.9375 2.5625,-1.953125 C 5.875,-0.25 7.109375,0.25 8.03125,0.25 c 2.53125,0 3.859375,-3.25 3.859375,-3.796875 0,-0.125 -0.09375,-0.21875 -0.25,-0.21875 -0.21875,0 -0.234375,0.125 -0.3125,0.328125 -0.671875,2.171875 -2.109375,3.1875 -3.21875,3.1875 -0.875,0 -1.34375,-0.640625 -1.34375,-1.65625 0,-0.546875 0.09375,-0.9375 0.5,-2.578125 L 8.125,-7.859375 C 8.5,-9.34375 9.34375,-10.4375 10.484375,-10.4375 c 0.04687,0 0.734375,0 1.265625,0.328125 z m 0,0"
             id="path148" />
        </g>
      </g>
      <g
         fill="#000000"
         fill-opacity="1"
         id="g154"
         transform="matrix(0.352778,0,0,0.352778,-0.945621,-0.614583)">
        <g
           id="g151"
           transform="translate(15.785,16.382)">
          <path
             d="m 7.859375,-1.875 c 0,-0.453125 -0.4375,-0.453125 -0.578125,-0.453125 -0.390625,0 -0.46875,0.140625 -0.546875,0.375 -0.375,0.953125 -1.21875,1.0625 -1.640625,1.0625 -1.453125,0 -2.703125,-1.234375 -2.703125,-2.828125 0,-0.875 0.5,-2.859375 2.75,-2.859375 0.46875,0 0.828125,0.03125 0.984375,0.046875 0.125,0.046875 0.140625,0.0625 0.140625,0.140625 0.046875,0.703125 0.59375,0.71875 0.6875,0.71875 0.375,0 0.703125,-0.25 0.703125,-0.71875 0,-1.1875 -1.734375,-1.1875 -2.484375,-1.1875 -2.953125,0 -3.890625,2.40625 -3.890625,3.859375 0,2.09375 1.59375,3.828125 3.65625,3.828125 2.3125,0 2.921875,-1.703125 2.921875,-1.984375 z m 0,0"
             id="path150" />
        </g>
        <g
           id="g152"
           transform="translate(24.644045,16.382)">
          <path
             d="m 5,-9.8125 c 0,-0.53125 -0.109375,-0.703125 -0.6875,-0.703125 H 1.78125 c -0.25,0 -0.703125,0 -0.703125,0.5 0,0.5 0.453125,0.5 0.703125,0.5 H 3.875 V -1 H 1.78125 c -0.25,0 -0.703125,0 -0.703125,0.5 0,0.5 0.453125,0.5 0.703125,0.5 h 5.3125 c 0.234375,0 0.6875,0 0.6875,-0.5 0,-0.5 -0.453125,-0.5 -0.6875,-0.5 H 5 Z m 0,0"
             id="path151" />
        </g>
        <g
           id="g153"
           transform="translate(33.50309,16.382)">
          <path
             d="m 3.71875,-3.25 c 0,-2.046875 1.453125,-3.28125 2.90625,-3.28125 0.09375,0 0.1875,0 0.28125,0.015625 0.046875,0.625 0.53125,0.671875 0.65625,0.671875 0.390625,0 0.671875,-0.28125 0.671875,-0.671875 C 8.234375,-7.25 7.5,-7.53125 6.640625,-7.53125 c -1.140625,0 -2.125,0.515625 -2.921875,1.484375 V -6.71875 c 0,-0.53125 -0.109375,-0.703125 -0.6875,-0.703125 H 1.296875 c -0.25,0 -0.6875,0 -0.6875,0.5 0,0.5 0.4375,0.5 0.6875,0.5 H 2.59375 V -1 H 1.296875 c -0.25,0 -0.6875,0 -0.6875,0.5 0,0.5 0.4375,0.5 0.6875,0.5 H 5.53125 c 0.234375,0 0.6875,0 0.6875,-0.5 0,-0.5 -0.453125,-0.5 -0.6875,-0.5 h -1.8125 z m 0,0"
             id="path152" />
        </g>
      </g>
    </g>
    <g
       transform="translate(97.978636,72.82425)"
       id="g158">
      <g
         fill="#000000"
         fill-opacity="1"
         id="g157"
         transform="matrix(0.352778,0,0,0.352778,-0.940109,-0.614936)">
        <g
           id="g156"
           transform="translate(1.993,12.665)">
          <path
             d="M 6.515625,2.78125 C 5.84375,3.71875 4.875,4.5625 3.671875,4.5625 3.375,4.5625 2.1875,4.515625 1.8125,3.375 1.890625,3.390625 2,3.390625 2.0625,3.390625 2.796875,3.390625 3.296875,2.75 3.296875,2.1875 3.296875,1.609375 2.828125,1.40625 2.453125,1.40625 2.0625,1.40625 1.1875,1.703125 1.1875,2.921875 1.1875,4.1875 2.25,5.0625 3.671875,5.0625 c 2.46875,0 4.984375,-2.28125 5.671875,-5.03125 l 2.421875,-9.671875 c 0.03125,-0.125 0.07813,-0.265625 0.07813,-0.421875 0,-0.375 -0.296875,-0.625 -0.671875,-0.625 -0.21875,0 -0.734375,0.109375 -0.9375,0.84375 l -1.82813,7.296875 c -0.125,0.4375 -0.125,0.484375 -0.328125,0.765625 -0.5,0.6875 -1.3125,1.53125 -2.5,1.53125 C 4.1875,-0.25 4.0625,-1.609375 4.0625,-2.28125 c 0,-1.40625 0.671875,-3.3125 1.34375,-5.109375 0.265625,-0.71875 0.421875,-1.0625 0.421875,-1.5625 0,-1.03125 -0.75,-1.96875 -1.96875,-1.96875 -2.265625,0 -3.1875,3.59375 -3.1875,3.78125 0,0.109375 0.09375,0.234375 0.265625,0.234375 0.234375,0 0.25,-0.109375 0.34375,-0.453125 0.609375,-2.078125 1.546875,-3.078125 2.515625,-3.078125 0.21875,0 0.640625,0 0.640625,0.828125 0,0.640625 -0.28125,1.359375 -0.640625,2.296875 -1.21875,3.25 -1.21875,4.0625 -1.21875,4.65625 0,2.359375 1.6875,2.90625 2.921875,2.90625 0.71875,0 1.609375,-0.21875 2.484375,-1.140625 L 8,-0.875 C 7.625,0.59375 7.390625,1.5625 6.515625,2.78125 Z m 0,0"
             id="path155" />
        </g>
      </g>
    </g>
    <g
       inkscape:label=""
       transform="translate(71.413937,43.285159)"
       id="g2">
      <path
         fill="none"
         stroke-width="0.398"
         stroke-linecap="butt"
         stroke-linejoin="miter"
         stroke="#000000"
         stroke-opacity="1"
         stroke-miterlimit="10"
         d="M 0,18.377937 H 6.8242192"
         id="path3"
         transform="scale(0.352778)" />
      <g
         fill="#000000"
         fill-opacity="1"
         id="g3"
         transform="matrix(0.352778,0,0,0.352778,-1.18373,-0.707275)">
        <g
           id="use3"
           transform="translate(17.063,20.583)">
          <path
             d="m 3.9375,-17.6875 c 0,-0.453125 0,-0.890625 -0.5,-0.890625 -0.484375,0 -0.484375,0.4375 -0.484375,0.890625 V 5.296875 c 0,0.453125 0,0.890625 0.484375,0.890625 0.5,0 0.5,-0.4375 0.5,-0.890625 z m 0,0"
             id="path4" />
        </g>
      </g>
      <g
         fill="#000000"
         fill-opacity="1"
         id="g4"
         transform="matrix(0.352778,0,0,0.352778,-1.18373,-0.707275)">
        <g
           id="g1"
           transform="translate(30.833,20.583)">
          <path
             d="m 16.78125,-5.65625 c 0.40625,-0.171875 0.5,-0.34375 0.5,-0.546875 0,-0.203125 -0.07813,-0.375 -0.5,-0.578125 L 3.015625,-13.25 c -0.328125,-0.171875 -0.375,-0.171875 -0.421875,-0.171875 -0.53125,0 -0.53125,0.453125 -0.53125,0.890625 V 0.125 c 0,0.421875 0,0.875 0.5,0.875 0.078125,0 0.125,0 0.453125,-0.171875 z M 15.609375,-6.21875 3.0625,-0.28125 v -11.875 z m 0,0"
             id="path5" />
        </g>
      </g>
    </g>
  </g>
</svg>
