<?xml version="1.0" encoding="UTF-8" standalone="no"?>
<!-- Created with Inkscape (http://www.inkscape.org/) -->

<svg
   width="23.102934mm"
   height="16.340092mm"
   viewBox="0 0 23.102934 16.340092"
   version="1.1"
   id="svg1"
   xmlns="http://www.w3.org/2000/svg"
   xmlns:svg="http://www.w3.org/2000/svg">
  <defs
     id="defs1" />
  <g
     id="layer1"
     transform="translate(-117.40296,-28.331437)">
    <ellipse
       style="fill:#ffffff;fill-opacity:1;stroke:#020002;stroke-width:0.898119;stroke-opacity:1"
       id="path138"
       cx="128.95442"
       cy="36.501484"
       rx="11.102405"
       ry="7.7209859" />
    <g
       transform="translate(122.7894,34.095978)"
       id="g148">
      <g
         fill="#000000"
         fill-opacity="1"
         id="g145"
         transform="matrix(0.352778,0,0,0.352778,-0.945621,-0.614583)">
        <g
           id="use4"
           transform="translate(1.993,12.664)">
          <path
             d="m 11.75,-10.109375 c -0.796875,0.140625 -1.09375,0.734375 -1.09375,1.21875 0,0.59375 0.46875,0.78125 0.8125,0.78125 0.75,0 1.265625,-0.640625 1.265625,-1.3125 0,-1.03125 -1.1875,-1.5 -2.234375,-1.5 -1.5,0 -2.34375,1.484375 -2.5625,1.953125 -0.578125,-1.859375 -2.109375,-1.953125 -2.5625,-1.953125 -2.53125,0 -3.859375,3.234375 -3.859375,3.78125 0,0.109375 0.09375,0.234375 0.265625,0.234375 0.203125,0 0.25,-0.15625 0.296875,-0.25 0.84375,-2.75 2.5,-3.28125 3.21875,-3.28125 1.125,0 1.34375,1.046875 1.34375,1.640625 C 6.640625,-8.25 6.5,-7.6875 6.1875,-6.5 l -0.828125,3.40625 c -0.375,1.484375 -1.09375,2.84375 -2.40625,2.84375 -0.125,0 -0.75,0 -1.265625,-0.3125 0.890625,-0.1875 1.09375,-0.921875 1.09375,-1.21875 0,-0.5 -0.375,-0.796875 -0.84375,-0.796875 -0.59375,0 -1.25,0.515625 -1.25,1.3125 0,1.046875 1.171875,1.515625 2.234375,1.515625 1.1875,0 2.03125,-0.9375 2.5625,-1.953125 C 5.875,-0.25 7.109375,0.25 8.03125,0.25 c 2.53125,0 3.859375,-3.25 3.859375,-3.796875 0,-0.125 -0.09375,-0.21875 -0.25,-0.21875 -0.21875,0 -0.234375,0.125 -0.3125,0.328125 -0.671875,2.171875 -2.109375,3.1875 -3.21875,3.1875 -0.875,0 -1.34375,-0.640625 -1.34375,-1.65625 0,-0.546875 0.09375,-0.9375 0.5,-2.578125 L 8.125,-7.859375 C 8.5,-9.34375 9.34375,-10.4375 10.484375,-10.4375 c 0.04687,0 0.734375,0 1.265625,0.328125 z m 0,0"
             id="path144" />
        </g>
      </g>
      <g
         fill="#000000"
         fill-opacity="1"
         id="g147"
         transform="matrix(0.352778,0,0,0.352778,-0.945621,-0.614583)">
        <g
           id="use5"
           transform="translate(15.785,16.382)">
          <path
             d="M 7.203125,-5.046875 C 7.203125,-6.734375 6.40625,-7.53125 5,-7.53125 c -1.171875,0 -1.9375,0.65625 -2.234375,0.984375 V -9.8125 c 0,-0.53125 -0.09375,-0.703125 -0.6875,-0.703125 h -1.125 c -0.25,0 -0.6875,0 -0.6875,0.5 0,0.5 0.4375,0.5 0.6875,0.5 H 1.65625 V -1 H 0.953125 c -0.25,0 -0.6875,0 -0.6875,0.5 0,0.5 0.4375,0.5 0.6875,0.5 h 2.53125 c 0.234375,0 0.6875,0 0.6875,-0.5 0,-0.5 -0.453125,-0.5 -0.6875,-0.5 h -0.71875 v -3.109375 c 0,-1.671875 1.171875,-2.421875 2.109375,-2.421875 1,0 1.203125,0.578125 1.203125,1.5625 V -1 H 5.375 C 5.125,-1 4.6875,-1 4.6875,-0.5 4.6875,0 5.125,0 5.375,0 h 2.53125 c 0.234375,0 0.6875,0 0.6875,-0.5 0,-0.5 -0.453125,-0.5 -0.6875,-0.5 H 7.203125 Z m 0,0"
             id="path145" />
        </g>
        <g
           id="use6"
           transform="translate(24.644045,16.382)">
          <path
             d="m 5,-9.8125 c 0,-0.53125 -0.109375,-0.703125 -0.6875,-0.703125 H 1.78125 c -0.25,0 -0.703125,0 -0.703125,0.5 0,0.5 0.453125,0.5 0.703125,0.5 H 3.875 V -1 H 1.78125 c -0.25,0 -0.703125,0 -0.703125,0.5 0,0.5 0.453125,0.5 0.703125,0.5 h 5.3125 c 0.234375,0 0.6875,0 0.6875,-0.5 0,-0.5 -0.453125,-0.5 -0.6875,-0.5 H 5 Z m 0,0"
             id="path146" />
        </g>
        <g
           id="use7"
           transform="translate(33.50309,16.382)">
          <path
             d="m 3.71875,-6.421875 h 2.796875 c 0.234375,0 0.6875,0 0.6875,-0.5 0,-0.5 -0.453125,-0.5 -0.6875,-0.5 H 3.71875 v -1.40625 c 0,-0.3125 0,-0.71875 -0.546875,-0.71875 -0.578125,0 -0.578125,0.40625 -0.578125,0.71875 v 1.40625 H 1.140625 c -0.25,0 -0.703125,0 -0.703125,0.5 0,0.5 0.4375,0.5 0.6875,0.5 h 1.46875 v 4.34375 c 0,1.59375 1.109375,2.1875 2.34375,2.1875 0.9375,0 2.640625,-0.46875 2.640625,-2.234375 0,-0.34375 0,-0.71875 -0.5625,-0.71875 -0.5625,0 -0.5625,0.375 -0.5625,0.75 -0.015625,1.03125 -1,1.203125 -1.390625,1.203125 -1.34375,0 -1.34375,-0.859375 -1.34375,-1.28125 z m 0,0"
             id="path147" />
        </g>
      </g>
    </g>
  </g>
</svg>
